<?xml version="1.0" standalone="no"?>
<!DOCTYPE svg PUBLIC "-//W3C//DTD SVG 1.1//EN" "http://www.w3.org/Graphics/SVG/1.1/DTD/svg11.dtd" >
<svg xmlns="http://www.w3.org/2000/svg">
<metadata>
This is a custom SVG webfont generated by Font Squirrel.
Copyright   : Copyright  1991 2002 Adobe Systems Incorporated  All Rights Reserved  1981 2002 Heidelberger Druckmaschinen AG All rights reserved
Designer    : Linotype Staff
Foundry URL : httpwwwadobecomtype
</metadata>
<defs>
<font id="EngraversLTStdBoldFace" horiz-adv-x="1366" >
<font-face units-per-em="2048" ascent="944" descent="-1104" />
<missing-glyph horiz-adv-x="626" />
<glyph unicode=" "  horiz-adv-x="626" />
<glyph unicode="&#x09;" horiz-adv-x="626" />
<glyph unicode="&#xa0;" horiz-adv-x="626" />
<glyph unicode="!" horiz-adv-x="684" d="M182 65.5q0 16.5 12.5 37t51.5 39t96 18.5t96 -18.5t51.5 -39t12.5 -37t-12.5 -36t-51.5 -37t-96 -17.5t-96 17.5t-51.5 37t-12.5 36zM182 842q0 127 160 127t160 -127q0 -18 -8 -47l-125 -494h-54l-125 494q-8 29 -8 47z" />
<glyph unicode="&#x22;" horiz-adv-x="1024" d="M170 829q0 80 24.5 110t84 30t84 -30t24.5 -110q0 -45 -31 -321q-12 -123 -77.5 -123t-77.5 123q-31 276 -31 321zM637 829q0 80 24.5 110t84 30t84 -30t24.5 -110q0 -45 -31 -321q-12 -123 -77.5 -123t-77.5 123q-31 276 -31 321z" />
<glyph unicode="#" horiz-adv-x="1253" d="M123 291v98h205l39 191h-185v98h205l62 291h149l-61 -291h260l61 291h150l-62 -291h184v-98h-204l-39 -191h184v-98h-205l-61 -291h-150l62 291h-260l-62 -291h-149l61 291h-184zM477 389h260l39 191h-260z" />
<glyph unicode="$" horiz-adv-x="1253" d="M172 209q0 41 32 68.5t72 27.5q106 0 107 -104q0 -25 -13.5 -53.5t-13.5 -41.5q0 -8 5.5 -18t21.5 -24.5t41 -25.5t70 -20.5t100 -9.5v350q-63 12 -97 19.5t-92.5 25t-91 38t-69.5 51t-53.5 75.5t-16.5 101q0 139 121 220t299 81v123h80v-123q168 -6 277.5 -58.5 t109.5 -138.5q0 -37 -25.5 -63.5t-68.5 -26.5q-96 0 -97 104q0 20 8.5 44t8.5 30q0 25 -25.5 41.5t-65.5 23.5t-69 9t-53 2v-297q170 -25 288.5 -110t118.5 -240q0 -133 -106.5 -214t-300.5 -100v-170h-80v170q-147 0 -284.5 62.5t-137.5 171.5zM326 795q0 -37 19.5 -62.5 t64.5 -42t80.5 -25t103.5 -18.5v289q-268 -22 -268 -141zM674 8q106 4 211.5 52.5t105.5 142.5q0 63 -58.5 87.5t-258.5 53.5v-336z" />
<glyph unicode="%" horiz-adv-x="1517" d="M164 723q0 104 72.5 175t177 71t177.5 -71t73 -175q0 -106 -73 -177t-177.5 -71t-177 71t-72.5 177zM326 723q0 -41 1 -62.5t4 -52t8 -46t14 -32t24.5 -23.5t36.5 -7q23 0 38 6t24 23.5t14.5 33t8.5 47t3 50.5v63q0 61 -2 91t-9.5 65.5t-26 50t-50.5 14.5 q-31 0 -49.5 -14.5t-26.5 -50t-10 -65.5t-2 -91zM410 -25l610 994h90l-610 -994h-90zM854 223q0 104 72.5 175t177 71t177.5 -70.5t73 -175.5q0 -106 -73 -177t-177.5 -71t-177 71t-72.5 177zM1016 223q0 -41 1 -62.5t4 -52t8 -46t14.5 -32t24.5 -23.5t36 -7q23 0 38 6 t24.5 23.5t14.5 33t8 47t3 51.5v62q0 61 -2 91t-9 66t-25.5 50t-51.5 14q-31 0 -49.5 -14t-26.5 -50t-10 -66t-2 -91z" />
<glyph unicode="&#x26;" horiz-adv-x="1478" d="M98 256q0 72 37 133.5t104.5 106.5t125 71.5t133.5 55.5q-39 84 -39 149q0 86 69.5 141.5t194.5 55.5q88 0 148.5 -33t60.5 -102q0 -115 -221 -179q27 -59 64.5 -115.5t172.5 -248.5q96 90 120 118.5t38 69.5l-66 103h-92v32h428v-32h-69q-84 -70 -334 -320 q43 -59 65.5 -85.5t64.5 -67.5t87 -58.5t98 -17.5h92v-33h-485q-37 45 -90 113q-63 -43 -103 -66.5t-117 -47.5t-161 -24q-92 0 -158.5 29t-97.5 64.5t-48.5 84t-19.5 68t-2 35.5zM295 375q0 -39 25.5 -119t87.5 -158q53 -68 129 -67q57 0 136 40t111 70q-137 209 -270 449 q-219 -74 -219 -215zM643 817q0 -37 47 -125q90 18 146.5 57t56.5 87q0 31 -31 62.5t-90 31.5q-53 0 -91 -28t-38 -85z" />
<glyph unicode="'" horiz-adv-x="626" d="M205 829q0 80 24.5 110t84 30t84 -30t24.5 -110q0 -45 -31 -321q-12 -123 -77.5 -123t-77.5 123q-31 276 -31 321z" />
<glyph unicode="(" horiz-adv-x="681" d="M131 366.5q0 143.5 58.5 264.5t143.5 191.5t157.5 110.5t125.5 50v-39q-240 -100 -239.5 -577.5t239.5 -577.5v-39q-53 10 -125.5 50t-157.5 111t-143.5 191.5t-58.5 264z" />
<glyph unicode=")" horiz-adv-x="681" d="M66 -211q240 100 239.5 577.5t-239.5 577.5v39q53 -10 125.5 -50t157.5 -110.5t143.5 -191.5t58.5 -264.5t-58.5 -264t-143.5 -191.5t-157.5 -111t-125.5 -50v39z" />
<glyph unicode="*" horiz-adv-x="1024" d="M156 645q0 61 71 62q10 0 54.5 -7.5t101.5 -16.5t90 -13l-133 166q-53 68 -53 79q0 53 65 54q25 0 38 -12.5t30 -51.5l92 -219l88 232q20 51 64 51q63 0 63 -51q0 -27 -43 -78l-133 -170q33 4 90 13t101 16.5t55 7.5q72 0 71 -62q0 -27 -23.5 -41t-47.5 -14 q-10 0 -52.5 7t-100.5 18.5t-93 15.5l133 -170q43 -51 43 -78q0 -51 -63 -51q-43 0 -64 51l-88 231l-92 -219q-16 -39 -29.5 -51t-38.5 -12q-66 0 -65 53q0 12 53 80l133 166q-35 -4 -93 -15.5t-100 -18.5t-53 -7q-25 0 -48 14t-23 41z" />
<glyph unicode="+" horiz-adv-x="978" d="M96 326v135h326v325h135v-325h326v-135h-326v-326h-135v326h-326z" />
<glyph unicode="," horiz-adv-x="626" d="M115 -231q215 82 215 172q0 35 -19 34q-68 0 -112.5 43t-44.5 117q0 66 47 113t112 47q76 0 122 -61.5t46 -149.5q0 -145 -106.5 -238.5t-259.5 -134.5v58z" />
<glyph unicode="-" horiz-adv-x="681" d="M102 303v205h478v-205h-478z" />
<glyph unicode="." horiz-adv-x="626" d="M154 135.5q0 65.5 47 112.5t112.5 47t112.5 -47t47 -112.5t-47 -113t-112.5 -47.5t-112.5 47.5t-47 113z" />
<glyph unicode="/" horiz-adv-x="569" d="M-53 -25l540 994h136l-541 -994h-135z" />
<glyph unicode="0" horiz-adv-x="1253" d="M123 473q0 203 144.5 349.5t359.5 146.5q203 0 353 -149.5t150 -346.5q0 -215 -152.5 -356.5t-350.5 -141.5q-219 0 -361.5 152.5t-142.5 345.5zM420 297q0 -289 207 -289t207 289v350q0 289 -207 289t-207 -289v-350z" />
<glyph unicode="1" horiz-adv-x="1253" d="M201 0v33h227l80 84v690l-92 84h-201v33h201q213 0 311 45h37v-852l108 -84h201v-33h-872z" />
<glyph unicode="2" horiz-adv-x="1253" d="M160 -25v60q0 98 45 174t112.5 120t147.5 88t147.5 78.5t112.5 94t45 135.5q0 211 -211 211q-51 0 -125 -19.5t-74 -48.5q0 -8 25 -21t48.5 -40t23.5 -66q0 -59 -37 -94t-96.5 -35t-96.5 33t-37 92q0 63 43 111.5t110 73t131.5 36t121.5 11.5q209 0 336 -71t127 -200 q0 -66 -26.5 -114.5t-77 -76.5t-95.5 -42t-106 -25q-276 -51 -369 -106q-100 -61 -100 -115q0 -18 16 -18q2 0 25.5 12t69.5 24.5t102 12.5q102 0 235 -51.5t176 -51.5q127 0 156 170h29q-8 -147 -100.5 -244.5t-237.5 -97.5q-115 0 -277 68t-205 68q-70 0 -69 -66v-70h-45z " />
<glyph unicode="3" horiz-adv-x="1253" d="M139 168q0 59 35 96t94 37q47 0 87 -32.5t40 -102.5q0 -39 -15 -67.5t-15 -39.5q0 -51 153 -51q76 0 129 18.5t79 41t39 61.5t15 60.5t2 56.5q0 131 -72.5 164.5t-320.5 42.5v39h60q180 0 240.5 37.5t60.5 181.5q0 113 -42 169t-151 56q-76 0 -121 -16.5t-45 -40.5 q0 -20 23.5 -47t23.5 -66q0 -47 -31.5 -73.5t-53 -31t-40.5 -4.5q-53 0 -86.5 37t-33.5 90q0 80 86 132.5t282 52.5q59 0 121.5 -7.5t153 -30t146.5 -78.5t56 -138q0 -39 -11 -68t-42 -53.5t-55.5 -38.5t-79.5 -41q-39 -18 -39 -27q0 -16 59 -30q78 -20 143.5 -76.5 t65.5 -142.5q0 -53 -22.5 -96.5t-55 -71t-87 -46t-97.5 -27.5t-108.5 -14.5t-98 -6.5t-86.5 -1q-47 0 -93 4.5t-123 20.5t-123 59t-46 109z" />
<glyph unicode="4" horiz-adv-x="1253" d="M143 319v99l500 551h236v-588h194v-62h-194v-196l79 -90h119v-33h-706v33h170l82 90v196h-480zM199 381h424v448q0 16 -15 17q-18 0 -30 -12l-379 -420v-33z" />
<glyph unicode="5" horiz-adv-x="1253" d="M162 176.5q0 63.5 40 93t77 29.5q55 0 92 -34t37 -89q0 -37 -27 -66.5t-27 -43.5q0 -10 14.5 -22.5t56.5 -24t105 -11.5q76 0 129.5 21.5t79 49t39 74t15.5 72t2 66.5q0 59 -9.5 101t-35 86t-85 66.5t-149.5 22.5q-117 0 -276 -61l-29 14l37 414q2 12 14 23.5t27 11.5 q2 0 141 -12.5t217 -12.5q76 0 207 12q135 12 156 13q37 0 37 -35q0 -10 -18.5 -31.5t-61.5 -51.5t-102.5 -55.5t-155 -44t-205.5 -18.5q-174 0 -230 19q-2 -25 -7 -69t-9 -74.5t-4 -35.5q0 -18 20 -18q10 0 51.5 14.5t121 28.5t178.5 14q209 0 338 -86t129 -245 q0 -305 -539 -306q-61 0 -117.5 7.5t-124 26t-108.5 61.5t-41 106.5z" />
<glyph unicode="6" horiz-adv-x="1253" d="M139 459q0 227 164 368.5t395 141.5q121 0 229.5 -45t108.5 -133q0 -100 -135 -101q-59 0 -99 29t-40 92q0 35 17.5 57.5t17.5 40.5q0 27 -86 27q-76 0 -129.5 -22.5t-81 -55.5t-43 -92t-18.5 -107.5t-3 -126.5v-8q100 74 246 74q201 0 316.5 -82t115.5 -197 q0 -162 -138 -253t-329 -91q-131 0 -230.5 43t-149.5 100.5t-81.5 132.5t-39 122t-7.5 86zM428 295q0 -68 5 -110t22.5 -87t58.5 -67.5t104 -22.5q127 0 174.5 61.5t47.5 239.5q0 53 -5.5 91t-23.5 80t-58 63.5t-104 21.5q-127 0 -188 -65q-20 -20 -26.5 -57t-6.5 -148z" />
<glyph unicode="7" horiz-adv-x="1253" d="M229 494l37 475h33q-6 -59 -6 -115q0 -37 14 -37q10 0 23.5 8.5t34 25.5t38.5 30q88 63 213 63q76 0 142.5 -29.5t111.5 -58.5t68 -29q20 0 33.5 14.5t17.5 30t10 52.5q8 45 27 45q27 0 27 -35q0 -80 -33 -159t-137 -261q-45 -80 -66.5 -156.5t-36.5 -214.5 q-4 -35 -8 -55t-19.5 -51t-48 -46.5t-83.5 -15.5q-49 0 -95.5 43t-46.5 127q0 135 183 281q258 207 258 266q0 25 -23 25q-6 0 -25.5 -10.5t-63.5 -19.5t-112 -9q-29 0 -166 24.5t-139 24.5q-70 0 -95.5 -50t-33.5 -183h-33z" />
<glyph unicode="8" horiz-adv-x="1253" d="M123 258q0 51 23.5 90t66.5 63.5t69.5 35t67.5 22.5q-76 41 -126 101.5t-50 127.5q0 70 39 122t92 80t123 44.5t116 20.5t85 4q113 0 213 -19.5t177 -70t77 -125.5q0 -55 -56.5 -105.5t-158.5 -75.5v-4q117 -49 183 -115.5t66 -177.5q0 -143 -126.5 -222t-344.5 -79 q-240 0 -388 80t-148 203zM274 256q0 -78 32 -130t90.5 -76.5t117.5 -33t139 -8.5q287 0 287 148q0 39 -20.5 69.5t-60.5 52t-70.5 34t-77.5 26.5q-268 84 -312 84q-47 0 -86 -49t-39 -117zM385 815q0 -61 88 -102q37 -16 123 -42t154.5 -44.5t74.5 -18.5q23 0 71 59.5 t48 108.5q0 59 -64.5 98t-131 50.5t-125.5 11.5q-76 0 -157 -31t-81 -90z" />
<glyph unicode="9" horiz-adv-x="1253" d="M139 625q0 162 138.5 253t328.5 91q131 0 230.5 -43t149.5 -100.5t82 -132.5t39 -122t7 -86q0 -227 -164 -368.5t-395 -141.5q-121 0 -229.5 45.5t-108.5 133.5q0 100 135 100q59 0 99.5 -28.5t40.5 -92.5q0 -35 -17.5 -57.5t-17.5 -40.5q0 -27 86 -27q76 0 129 22.5 t80.5 55.5t43 92.5t18.5 107.5t3 126v8q-100 -74 -246 -74q-201 0 -316.5 82t-115.5 197zM414 635q0 -53 5 -91t23.5 -80t58.5 -63.5t103 -21.5q127 0 189 65q20 20 26 57.5t6 147.5q0 68 -5 110t-22.5 87t-58.5 67.5t-104 22.5q-127 0 -174 -61.5t-47 -239.5z" />
<glyph unicode=":" horiz-adv-x="626" d="M154 98q0 47 48 85t111.5 38t111.5 -38t48 -85q0 -49 -48 -86t-111.5 -37t-111.5 37t-48 86zM154 561q0 47 48 85t111.5 38t111.5 -38t48 -85q0 -49 -48 -86t-111.5 -37t-111.5 37t-48 86z" />
<glyph unicode=";" horiz-adv-x="626" d="M115 -231q215 82 215 172q0 35 -17 34q-63 0 -111 37t-48 86q0 47 48 85t111 38q66 0 113 -41t47 -104q0 -141 -103.5 -232.5t-254.5 -132.5v58zM154 561q0 47 48 85t111.5 38t111.5 -38t48 -85q0 -49 -48 -86t-111.5 -37t-111.5 37t-48 86z" />
<glyph unicode="&#x3c;" horiz-adv-x="978" d="M96 338v111l787 354v-129l-627 -281l627 -280v-129z" />
<glyph unicode="=" horiz-adv-x="978" d="M96 176v135h787v-135h-787zM96 475v135h787v-135h-787z" />
<glyph unicode="&#x3e;" horiz-adv-x="978" d="M96 -16v129l627 280l-627 281v129l787 -354v-111z" />
<glyph unicode="?" horiz-adv-x="1024" d="M127 799q0 53 36 90t95 53t107.5 21.5t99.5 5.5q418 0 418 -203q0 -133 -226 -244q-98 -47 -128.5 -84t-39.5 -143h-55v59q0 82 24.5 146.5t55.5 96.5t55.5 77t24.5 94q0 80 -35 118t-115 38q-86 0 -86 -33q0 -16 17.5 -43t17.5 -62q0 -51 -40 -79.5t-93 -28.5 q-133 0 -133 121zM307 65.5q0 16.5 12.5 37t51.5 39t96 18.5t96 -18.5t51.5 -39t12.5 -37t-12.5 -36t-51.5 -37t-96 -17.5t-96 17.5t-51.5 37t-12.5 36z" />
<glyph unicode="@" horiz-adv-x="1228" d="M119 451q0 227 152.5 372.5t369.5 145.5q209 0 339 -116t130 -306q0 -129 -67.5 -236.5t-194.5 -107.5q-113 0 -154 102h-2q-57 -102 -170 -102q-147 0 -147 182q0 139 87 241.5t202 102.5q82 0 108 -74h4l10 58h111l-86 -348q-8 -31 -8 -56q0 -39 49 -39q92 0 135 89.5 t43 185.5q0 135 -104.5 230t-284.5 95q-178 0 -295 -106.5t-117 -306.5q0 -174 115 -278.5t297 -104.5q193 0 313 63l43 -78q-131 -84 -340 -84q-133 0 -240.5 45.5t-170 116t-95 151.5t-32.5 163zM504 379q0 -102 65 -103q61 0 118.5 87.5t57.5 191.5q0 100 -75 100 q-55 0 -110.5 -76.5t-55.5 -199.5z" />
<glyph unicode="A" d="M37 0v33q119 33 176 133l459 803h100l358 -840q41 -96 199 -96v-33h-643v33h145l48 61l-80 197h-453l-57 -101l76 -157h75v-33h-403zM371 336h405l-164 381q-6 6 -12 6q-8 0 -16 -10z" />
<glyph unicode="B" horiz-adv-x="1478" d="M96 0v33h131l82 84v710l-94 84h-119v33h815q352 0 353 -203q0 -106 -115 -163q-29 -16 -82 -31t-87 -25t-34 -18q0 -18 60 -33q158 -39 234.5 -87t76.5 -153q0 -55 -21.5 -97t-64.5 -65.5t-83 -39t-99.5 -21.5t-89 -7t-76.5 -1h-787zM565 117l86 -84h178q115 0 164 66.5 t49 144.5q0 90 -53 160.5t-186 70.5h-238v-358zM565 514h207q35 0 68.5 6t79 24.5t72 63.5t26.5 111q0 193 -215 192h-162l-76 -84v-313z" />
<glyph unicode="C" d="M158 477q0 205 165.5 348.5t374.5 143.5q176 0 316 -99l137 95h25v-418h-25q-8 33 -20.5 69.5t-45 98t-75.5 106.5t-116 80t-159 35q-303 0 -303 -428q0 -74 2 -114t9.5 -108.5t28 -109.5t54 -84t90 -63.5t132.5 -20.5q164 0 281.5 107.5t127.5 275.5h33 q0 -51 -19.5 -112.5t-66.5 -134t-147.5 -121t-239.5 -48.5q-227 0 -393 139.5t-166 362.5z" />
<glyph unicode="D" horiz-adv-x="1478" d="M84 0v33h139l74 92v706l-76 80h-137v33h686q264 0 421 -111.5t157 -353.5q0 -213 -143.5 -346t-373.5 -133h-747zM563 119l74 -86h178q70 0 120 28.5t76.5 69.5t41 105.5t17.5 114.5t3 120q0 86 -9 153.5t-36 138.5t-85 109.5t-146 38.5h-160l-74 -80v-712z" />
<glyph unicode="E" d="M66 0v33h149l82 84v710l-94 84h-137v33h1142l15 -356h-33l-238 323h-323l-76 -77v-306h149l185 213h24v-458h-24l-187 206h-147v-380l68 -76h311l270 327h25v-360h-1161z" />
<glyph unicode="F" d="M66 0v33h149l82 84v710l-94 84h-137v33h1181l17 -375h-29l-254 342h-352l-76 -77v-306h160l149 209h29v-446h-29l-149 198h-160v-380l68 -76h213v-33h-768z" />
<glyph unicode="G" horiz-adv-x="1593" d="M131 446q0 244 191.5 383.5t443.5 139.5q90 0 222 -37t165 -37q72 0 125 74h22v-394h-24q-35 59 -56.5 93t-70.5 92.5t-96 90.5t-121 58.5t-156 26.5q-102 0 -175 -38t-109.5 -89t-57 -129t-24.5 -129t-4 -117q0 -100 10 -164.5t45 -130t112.5 -98.5t198.5 -33 q86 0 175 29t104 82v229l-72 76h-150v33h699v-33h-129l-92 -78v-219q0 -25 16 -64l-12 -12q-16 16 -57.5 16.5t-215.5 -46t-303 -46.5q-283 0 -443.5 143.5t-160.5 327.5z" />
<glyph unicode="H" horiz-adv-x="1593" d="M84 0v33h143l82 84v710l-94 84h-131v33h651v-33h-94l-76 -84v-299h463v299l-86 84h-86v33h653v-33h-131l-94 -84v-710l82 -84h143v-33h-653v33h98l74 84v364h-463v-364l86 -84h84v-33h-651z" />
<glyph unicode="I" horiz-adv-x="909" d="M96 0v33h144l82 84v710l-95 84h-131v33h717v-33h-131l-94 -84v-710l82 -84h143v-33h-717z" />
<glyph unicode="J" horiz-adv-x="1138" d="M55 229q0 66 36 114t112 48q59 0 94 -40t35 -99q0 -123 -150 -154q-4 0 -4 -8q0 -6 6 -12q25 -33 80 -51.5t105 -18.5q102 0 153 55.5t51 198.5v565l-94 84h-131v33h717v-33h-131l-94 -84v-495q0 -96 -36 -167t-84 -105.5t-114.5 -55t-108.5 -25t-85 -4.5 q-145 0 -251 69.5t-106 184.5z" />
<glyph unicode="K" horiz-adv-x="1478" d="M84 0v33h137l80 82v710l-84 86h-133v33h580v-33h-54l-63 -65v-385l401 301l-108 149h-76v33h663v-33h-176l-366 -262l358 -534l78 -82h135v-33h-635v33h111l22 98l-260 383l-147 -117v-293l67 -71h99v-33h-629z" />
<glyph unicode="L" d="M66 0v33h198l60 73v734l-72 71h-186v33h774v-33h-168l-82 -71v-734l80 -73h270l242 454h32v-487h-1148z" />
<glyph unicode="M" horiz-adv-x="1820" d="M106 0v33h113l127 153v652q0 23 -2 35t-17.5 25t-43.5 13h-177v33h556l268 -588h14l242 588h528v-33h-127l-94 -84v-710l82 -84h139v-33h-719v33h154l88 84v700q0 53 -20 53q-23 0 -41 -45l-330 -825h-21l-391 848q-6 16 -24 16q-20 0 -21 -26v-652l135 -153h117v-33 h-535z" />
<glyph unicode="N" horiz-adv-x="1593" d="M63 0v33h115l150 182v598q0 98 -86 98h-179v33h523l637 -745v530l-129 182h-131v33h567v-33h-103l-161 -182v-729h-211l-674 786h-10v-571l155 -182h123v-33h-586z" />
<glyph unicode="O" horiz-adv-x="1593" d="M131 471q0 219 196.5 358.5t469 139.5t469 -139.5t196.5 -358.5q0 -217 -196.5 -356.5t-469 -139.5t-469 139.5t-196.5 356.5zM406 471q0 -80 6 -138.5t29.5 -124t64.5 -106.5t114.5 -67.5t176 -26.5t176.5 26.5t114.5 67.5t64.5 106.5t30 124t6 138.5q0 102 -12.5 174 t-50.5 143.5t-119.5 109.5t-208.5 38t-209 -38t-120 -109.5t-50 -143.5t-12 -174z" />
<glyph unicode="P" d="M84 0v33h129l84 90v696l-94 92h-119v33h756q72 0 139.5 -8t146 -31.5t126.5 -76t48 -128.5q0 -78 -47 -134t-124.5 -82.5t-149.5 -38t-145 -11.5h-271v-319l82 -82h158v-33h-719zM563 473h189q74 0 126 15.5t78.5 37t42 55t18.5 59.5t3 60q0 59 -17.5 102.5t-39 64 t-56.5 31.5t-52 12t-42 1h-174l-76 -77v-361z" />
<glyph unicode="Q" horiz-adv-x="1593" d="M131 471q0 219 196.5 358.5t469 139.5t469 -139.5t196.5 -358.5q0 -152 -99 -267.5t-263 -172.5q49 -100 93 -137t103 -37q76 0 148 71l24 -18q-37 -88 -126 -146.5t-166 -58.5q-57 0 -100.5 23.5t-72 71.5t-44 86t-33.5 100q-18 -4 -64 -9q-23 -2 -65 -2 q-272 0 -469 139.5t-197 356.5zM406 471q0 -113 13 -190.5t67.5 -151.5t152.5 -100l4 4q-51 25 -51 108q0 80 60.5 122t142.5 42q66 0 116 -21.5t81.5 -60.5t47 -66.5t29.5 -66.5q119 100 119 381q0 102 -12.5 174t-50.5 143.5t-119.5 109.5t-208.5 38t-209 -38t-120 -109.5 t-50 -143.5t-12 -174zM637 127q0 -61 45 -90t115 -29q68 0 121 12q-29 229 -154 230q-14 0 -30.5 -3t-41 -13.5t-40 -38t-15.5 -68.5z" />
<glyph unicode="R" horiz-adv-x="1478" d="M66 0v33h161l82 84v710l-94 84h-149v33h829q418 0 418 -227q0 -57 -34 -99.5t-97.5 -64t-104.5 -29.5t-104 -16q-109 -14 -109 -35q0 -31 65.5 -50.5t182.5 -19.5l80 -270q16 -53 45 -76.5t51 -23.5h70v-33h-385l-123 381q-33 100 -164 100h-131v-372l86 -76h133v-33 h-708zM555 514q88 0 131 1t111.5 6t102.5 18.5t71 35t52 58.5t15 86q0 193 -217 192h-168l-98 -77v-320z" />
<glyph unicode="S" d="M176 668q0 123 104.5 212t325.5 89q199 0 398 -92l106 92h29v-301h-29q-31 53 -65.5 93t-92 84t-144.5 67.5t-196 23.5q-70 0 -128 -11.5t-107 -48t-49 -98.5q0 -43 26.5 -72.5t87 -47t124 -27.5t171.5 -21q82 -8 127 -15t117 -28.5t110.5 -53.5t68.5 -90t30 -138 q0 -162 -135 -236t-340 -74q-229 0 -361 97l-121 -97h-28v351h28q31 -57 49.5 -88t62.5 -81.5t91 -78t125 -49t172 -21.5q139 0 230.5 46t91.5 128q0 20 -8.5 39t-27 33t-36.5 24.5t-49 18.5t-53.5 14t-60.5 11.5t-58.5 7.5t-60 6t-52.5 6q-111 12 -187.5 30.5t-146 54.5 t-104.5 95.5t-35 145.5z" />
<glyph unicode="T" horiz-adv-x="1253" d="M66 627v317h1122v-317h-25l-202 284h-201v-782l92 -96h147v-33h-745v33h147l93 96v782h-201l-203 -284h-24z" />
<glyph unicode="U" horiz-adv-x="1593" d="M70 911v33h716v-33h-147l-76 -84v-610q0 -78 74 -143.5t235 -65.5q57 0 109.5 8.5t116 32t102.5 79.5t39 138v475l-154 170h-122v33h587v-33h-118l-156 -170v-460q0 -305 -442 -306q-94 0 -176.5 11.5t-170.5 40t-139 91t-51 154.5v555l-86 84h-141z" />
<glyph unicode="V" d="M41 911v33h649v-33h-110l-68 -86l264 -526q6 -14 12.5 -14t12.5 14l221 428l-102 184h-97v33h502v-33h-94l-170 -192l-377 -744h-31l-430 844l-86 92h-96z" />
<glyph unicode="W" horiz-adv-x="2048" d="M53 911v33h660v-33h-127l-62 -100l236 -510q8 -12 12 -12q6 0 10 12l277 643h86l278 -653q4 -12 15 -12q8 0 12 12l217 434l-154 186h-129v33h611v-33h-117l-170 -192l-377 -744h-47l-278 664q-4 12 -17 12q-10 0 -16 -12l-273 -664h-55l-369 795l-118 141h-105z" />
<glyph unicode="X" d="M41 0v33h104l295 217l168 176l-256 373l-116 112h-138v33h635v-33h-49l-55 -86l166 -241l182 211l-66 116h-59v33h473v-33h-104l-226 -149l-176 -211l275 -389q61 -86 106 -107.5t125 -21.5v-33h-606v33h67l41 90l-196 274l-172 -186l55 -178h86v-33h-559z" />
<glyph unicode="Y" d="M41 911v33h635v-33h-55l-58 -71l201 -361q4 -10 10 -10q10 0 17 10l188 289l-129 143h-70v33h545v-33h-106l-211 -176l-199 -295v-323l82 -84h160v-33h-744v33h154l82 84v258l-273 456l-86 80h-143z" />
<glyph unicode="Z" horiz-adv-x="1251" d="M143 0v43l648 868h-326l-272 -327h-25v360h919v-39l-649 -872h348l297 375h25v-408h-965z" />
<glyph unicode="[" horiz-adv-x="681" d="M184 -236v1205h437v-56h-220v-1093h220v-56h-437z" />
<glyph unicode="\" horiz-adv-x="569" d="M-53 969h135l541 -994h-136z" />
<glyph unicode="]" horiz-adv-x="681" d="M61 -180h220v1093h-220v56h437v-1205h-437v56z" />
<glyph unicode="^" horiz-adv-x="978" d="M156 377l282 567h103l282 -567h-135l-199 409l-198 -409h-135z" />
<glyph unicode="_" horiz-adv-x="1024" d="M0 -154h1024v-102h-1024v102z" />
<glyph unicode="`" horiz-adv-x="681" d="M133 1161h152l168 -256h-93z" />
<glyph unicode="a" horiz-adv-x="1251" d="M37 0v33q51 10 76.5 18t65.5 43t73 96l334 611h55l395 -697q18 -33 51 -50t57.5 -19t69.5 -2v-33h-596v33h142l37 69l-105 183h-344l-74 -138l64 -114h86v-33h-387zM369 317h305l-135 265q-4 12 -15 12q-8 0 -16 -12z" />
<glyph unicode="b" d="M51 0v33h152l73 71v574l-69 76h-156v32h744q59 0 94 -1t96.5 -10t97 -25.5t64.5 -51t29 -84.5q0 -68 -63.5 -108.5t-121.5 -50.5q-92 -18 -92 -28.5t102 -31.5q80 -14 149 -66.5t69 -135.5q0 -193 -414 -193h-754zM494 104l71 -71h191q94 0 155.5 43t61.5 135t-56.5 137 t-154.5 45h-268v-289zM494 426h276q66 0 118 40t52 126q0 162 -199 162h-180l-67 -66v-262z" />
<glyph unicode="c" horiz-adv-x="1175" d="M94 383q0 186 158 307t348 121q76 0 135.5 -14.5t87 -29.5t76.5 -46l119 90h33v-352h-33q-47 168 -153.5 243.5t-227.5 75.5q-297 0 -297 -383q0 -49 2 -82.5t18.5 -97t46 -103.5t92 -72t150.5 -32q43 0 93.5 13.5t110.5 45t115.5 95t86.5 149.5h32q-10 -29 -19 -50 t-47 -80.5t-84 -98.5t-131 -73t-185 -34q-231 0 -379 122t-148 286z" />
<glyph unicode="d" d="M51 0v33h152l73 71v574l-69 76h-156v32h649q166 0 283 -37.5t173 -100t80 -125t24 -132.5q0 -168 -154 -279.5t-406 -111.5h-649zM494 109l69 -76h133q84 0 144.5 23.5t91.5 56t48 86t20.5 93.5t3.5 99.5t-3.5 99t-20.5 94t-48 88.5t-91.5 57.5t-144.5 23.5h-127l-75 -76 v-569z" />
<glyph unicode="e" horiz-adv-x="1251" d="M51 0v33h144l67 73v574l-67 74h-144v32h1049v-284h-33l-152 252h-346l-71 -76v-272h166l114 184h33v-404h-33l-116 187h-164v-267l71 -73h316l221 313h33l-17 -346h-1071z" />
<glyph unicode="f" horiz-adv-x="1251" d="M76 0v33h147l68 73v574l-68 74h-147v32h1067v-325h-33l-164 293h-330l-98 -80v-248h182l107 182h33v-403h-33l-107 188h-182v-287l80 -73h141v-33h-663z" />
<glyph unicode="g" horiz-adv-x="1251" d="M94 387q0 193 153.5 308.5t354.5 115.5q78 0 181.5 -39t109.5 -39q49 0 111 78h36v-319h-32q-41 109 -122 177t-149.5 88.5t-132.5 20.5q-66 0 -115 -22.5t-76.5 -58t-45 -88t-22.5 -102.5t-5 -114q0 -70 3 -116t17.5 -101t40 -89t73.5 -56.5t116 -22.5q115 0 176 31 t61 72v149l-61 72h-166v33h627v-33h-113l-70 -68v-262l-10 -25q-35 35 -110 35q-33 0 -153 -18.5t-193 -18.5q-129 0 -228.5 40t-152 104.5t-78 132t-25.5 135.5z" />
<glyph unicode="h" d="M76 0v33h121l67 73v574l-71 74h-117v32h542v-32h-69l-68 -74v-254h404v254l-66 74h-82v32h553v-32h-116l-72 -74v-574l84 -73h104v-33h-549v33h82l62 73v273h-404v-273l74 -73h70v-33h-549z" />
<glyph unicode="i" horiz-adv-x="796" d="M76 0v33h141l68 73v574l-68 74h-141v32h645v-32h-129l-80 -74v-574l80 -73h129v-33h-645z" />
<glyph unicode="j" horiz-adv-x="1024" d="M51 182q0 70 43 110t109 40q59 0 98 -39t39 -98q0 -43 -26.5 -76t-52 -52.5t-25.5 -27.5q0 -31 96 -31q63 0 101 12.5t53.5 40t18.5 49t3 62.5v508l-68 74h-147v32h645v-32h-123l-80 -74v-416q0 -39 -2 -60.5t-11 -61.5t-33.5 -64.5t-62.5 -51t-105.5 -39t-155.5 -12.5 q-314 0 -314 207z" />
<glyph unicode="k" d="M76 0v33h121l67 73v574l-71 74h-117v32h559v-32h-76l-67 -58v-354l458 293l-114 119h-70v32h532v-32h-94l-352 -228l389 -493h80v-33h-549v33h113l33 71l-242 306l-184 -115v-195l67 -67h76v-33h-559z" />
<glyph unicode="l" horiz-adv-x="1251" d="M51 0v33h137l68 73v574l-68 74h-137v32h666v-32h-154l-80 -74v-574l80 -73h328l233 364h33v-397h-1106z" />
<glyph unicode="m" horiz-adv-x="1593" d="M94 0v33h92l99 123v528q0 23 -14.5 46.5t-39.5 23.5h-137v32h455l268 -505l242 505h440v-32h-106l-84 -76v-563l71 -82h119v-33h-577v33h110l60 76v596q0 8 -13 8q-14 0 -16 -8l-328 -685h-16l-361 678q-6 10 -14 11q-14 0 -14 -15v-538l112 -123h78v-33h-426z" />
<glyph unicode="n" d="M74 0v33h112l95 123v501q0 96 -68 97h-139v32h395l571 -505v350l-96 123h-129v32h477v-32h-108l-99 -121v-633h-57l-702 614v-452l100 -129h137v-33h-489z" />
<glyph unicode="o" horiz-adv-x="1253" d="M94 393.5q0 190.5 162 304t371 113.5t370.5 -116.5t161.5 -301t-161.5 -301.5t-370.5 -117t-371 114t-162 304.5zM340 393.5q0 -61.5 2 -97.5t16.5 -97.5t43 -97t86 -64.5t139.5 -29t139 29t86 64.5t43 98t16 98.5t2 95.5t-2 95t-16 98t-43 98.5t-86 64.5t-139 28.5 t-139.5 -28.5t-86 -64.5t-43 -97.5t-16.5 -97t-2 -97z" />
<glyph unicode="p" horiz-adv-x="1251" d="M76 0v33h143l64 73v572l-64 76h-143v32h747q98 0 171 -19t106 -42t52 -56.5t21.5 -48t2.5 -30.5q0 -225 -412 -225h-254v-259l72 -73h131v-33h-637zM510 397h238q90 0 145 46t55 135q0 57 -19.5 96t-50 54t-51 20.5t-41.5 5.5h-219l-57 -66v-291z" />
<glyph unicode="q" horiz-adv-x="1251" d="M94 393.5q0 190.5 162 304t371 113.5t370.5 -116.5t161.5 -301.5q0 -129 -83 -226t-214 -147q25 -53 42.5 -81.5t49 -53t70.5 -24.5q31 0 55.5 11t34.5 22.5t27 33.5l28 -18q-72 -160 -237 -160q-170 0 -207 234l-49 -7q-8 0 -24.5 -1t-24.5 -1q-209 0 -371 114 t-162 304.5zM340 393q0 -76 3 -122t29.5 -114.5t78.5 -103.5l4 4q-12 16 -13 56q0 63 43 105t121 42q84 0 135.5 -48t89.5 -130q82 82 82 311q0 59 -2 95t-16 98.5t-43 98.5t-86 64.5t-139 28.5t-139.5 -28.5t-86 -64.5t-43 -97.5t-16.5 -97.5t-2 -97zM481 113q0 -63 39 -84 t109 -21q43 0 88 10q-14 63 -21.5 90t-23 57t-36 40t-50.5 10q-47 0 -76 -31.5t-29 -70.5z" />
<glyph unicode="r" d="M76 0v33h121l67 73v574l-71 74h-117v32h723q367 0 366 -184q0 -39 -18.5 -68.5t-40 -47t-65.5 -30t-67.5 -17.5t-70.5 -11q-80 -12 -99.5 -19.5t-19.5 -27.5q0 -29 79 -46.5t147 -23.5l71 -155q33 -70 65 -91.5t103 -25.5v-39h-375q-39 106 -61 166.5t-53 110t-47.5 69 t-57.5 32.5t-68.5 14t-94.5 1v-293l67 -67h107v-33h-590zM492 426h108q309 0 309 168q0 66 -40 104.5t-75.5 47t-66.5 8.5h-170l-65 -66v-262z" />
<glyph unicode="s" horiz-adv-x="1138" d="M156 555q0 102 85 179t263 77q78 0 144.5 -15.5t95 -28.5t77.5 -40l82 78h25v-242h-25q-104 215 -399 215q-113 0 -169 -38t-56 -93q0 -27 8 -46t29.5 -33.5t39 -22.5t59.5 -15.5t65.5 -9.5t78.5 -8q66 -6 101.5 -11t94 -16.5t91.5 -30t68.5 -47t52 -72.5t16.5 -102 q0 -74 -31.5 -126t-71.5 -76.5t-98.5 -37.5t-86 -15.5t-60.5 -2.5q-166 0 -332 88l-100 -88h-25v283h25q133 -250 446 -250q94 0 165 40t71 111.5t-63.5 91t-303.5 40.5q-362 28 -362 264z" />
<glyph unicode="t" horiz-adv-x="1138" d="M106 412v374h926v-374h-20l-168 342h-170v-639l69 -82h172v-33h-692v33h172l70 82v639h-170l-168 -342h-21z" />
<glyph unicode="u" d="M51 754v32h627v-32h-129l-74 -72v-522q0 -145 230 -146q182 0 268 70t86 227v310l-119 133h-137v32h512v-32h-90l-127 -142v-311q0 -178 -110.5 -252t-315.5 -74q-223 0 -323.5 63.5t-100.5 221.5v418l-68 76h-129z" />
<glyph unicode="v" horiz-adv-x="1251" d="M57 754v32h592v-32h-104l-45 -82l227 -426q10 -16 16 -17q10 0 17 17l196 403l-84 105h-96v32h418v-32h-72l-131 -113l-329 -666h-31l-395 707l-103 72h-76z" />
<glyph unicode="w" horiz-adv-x="1705" d="M45 754v32h602v-32h-88l-80 -109l183 -371q10 -14 12 -14q6 0 12 14l236 512h32l275 -534q8 -16 18 -16t19 16l200 395l-61 107h-92v32h348v-32h-74l-92 -123l-338 -656h-37l-276 512q-4 10 -10.5 10.5t-10.5 -10.5l-231 -512h-29l-342 670q-59 109 -176 109z" />
<glyph unicode="x" horiz-adv-x="1251" d="M45 0v33h61l398 319l-338 359q-41 43 -107 43v32h570v-32h-74l-57 -76l192 -199l219 178l-71 97h-76v32h440v-32h-86l-98 -58l-301 -245l284 -322q33 -37 71 -58.5t63.5 -26.5t70.5 -11v-33h-563v33h76l20 57l-211 236l-198 -164l78 -129h92v-33h-455z" />
<glyph unicode="y" horiz-adv-x="1251" d="M86 754v32h516v-32h-63l-43 -76l178 -305q6 -12 14 -12.5t14 10.5l203 274l-102 109h-68v32h461v-32h-98l-166 -142l-209 -286v-217l76 -76h131v-33h-639v33h137l68 82v147l-244 412l-74 80h-92z" />
<glyph unicode="z" horiz-adv-x="1138" d="M131 0v39l563 715h-338l-176 -289h-28v321h817v-45l-547 -708h358l183 313h28v-346h-860z" />
<glyph unicode="{" horiz-adv-x="681" d="M47 365v4q80 31 110.5 81t30.5 125v228q0 104 75 135t276 31v-45q-84 0 -115 -25t-31 -96v-228q0 -154 -186 -206v-4q186 -53 186 -207v-228q0 -72 31 -96t115 -24v-46q-201 0 -276 31t-75 135v228q0 76 -30.5 126t-110.5 81z" />
<glyph unicode="|" horiz-adv-x="454" d="M160 -512v2048h135v-2048h-135z" />
<glyph unicode="}" horiz-adv-x="681" d="M143 -190q84 0 115 24.5t31 95.5v228q0 154 186 207v4q-186 53 -186 206v228q0 72 -31 96.5t-115 24.5v45q201 0 276 -31t75 -135v-228q0 -76 30.5 -126t110.5 -80v-4q-80 -31 -110.5 -81.5t-30.5 -125.5v-228q0 -104 -75 -135t-276 -31v46z" />
<glyph unicode="~" horiz-adv-x="978" d="M131 381q70 133 195 133q61 0 176 -55q111 -49 153.5 -49t72.5 28.5t65 79.5l55 -110q-66 -133 -193 -134q-63 0 -178 56q-111 49 -153 49q-29 0 -55.5 -18.5t-42 -38t-40.5 -54.5z" />
<glyph unicode="&#xa1;" horiz-adv-x="684" d="M182 -55q0 18 8 47l125 493h54l125 -493q8 -29 8 -47q0 -127 -160 -127t-160 127zM182 721q0 16 12.5 35.5t51.5 37t96 17.5t96 -17.5t51.5 -37t12.5 -35.5t-12.5 -36.5t-51.5 -39t-96 -18.5t-96 18.5t-51.5 39t-12.5 36.5z" />
<glyph unicode="&#xa2;" horiz-adv-x="1253" d="M184 336q0 184 139.5 282.5t340.5 98.5h67l80 203h78l-84 -213q264 -53 264 -218q0 -47 -31.5 -79.5t-85.5 -32.5q-51 0 -80.5 29.5t-29.5 70.5t31.5 69.5t31.5 41.5q0 33 -45 50t-84 19l-235 -581q70 -45 168 -45q86 0 169 39t107 104h55q-72 -199 -383 -199 q-88 0 -139 19l-92 -236h-80l98 250q-260 95 -260 328zM389 348q0 -94 18.5 -138t84.5 -108l225 560q-158 0 -243 -79t-85 -235z" />
<glyph unicode="&#xa3;" horiz-adv-x="1253" d="M98 494v55h181q-18 47 -19 119q0 154 108.5 227.5t282.5 73.5q186 0 272.5 -78t86.5 -166q0 -68 -37 -98.5t-84 -30.5q-41 0 -68.5 25.5t-27.5 76.5q0 35 35.5 83t35.5 73q0 82 -182 82q-217 0 -217 -166q0 -45 53 -221h184v-55h-180q0 -104 -63 -224q-10 -20 -31.5 -52 t-35 -54.5t-13.5 -28.5q0 -27 33 -26q18 0 111 47t177 47q61 0 137 -33t97 -33q47 0 70.5 24.5t46.5 78.5h39q-2 -25 -6.5 -47.5t-24 -65.5t-49 -73.5t-88 -54.5t-136.5 -24q-49 0 -174 27q-111 27 -176 27q-47 0 -112 -27q-76 -27 -91 -27q-20 0 -38.5 13.5t-18.5 36.5 q0 31 62 73q80 57 79 203q0 121 -28 193h-191z" />
<glyph unicode="&#xa4;" horiz-adv-x="1253" d="M221 147l90 89q-82 104 -82 237q0 135 82 240l-90 88l74 73l88 -88q104 82 243.5 82t243.5 -82l88 88l74 -73l-90 -88q82 -104 82 -240q0 -133 -82 -237l90 -89l-74 -73l-88 88q-109 -82 -243.5 -82t-243.5 82l-88 -88zM365 473q0 -117 74.5 -196.5t187 -79.5t187.5 79.5 t75 196.5q0 119 -75 199t-187.5 80t-187 -80t-74.5 -199z" />
<glyph unicode="&#xa5;" horiz-adv-x="1253" d="M37 911v33h590v-33h-52l-53 -71l185 -361q4 -10 10 -10q8 0 14 10l174 287l-119 145h-63v33h494v-33h-93l-194 -176l-170 -274h254v-55h-264v-115h264v-55h-264v-119l75 -84h146v-33h-682v33h139l76 84v119h-232v55h232v84l-21 31h-211v55h185l-203 370l-78 80h-139z" />
<glyph unicode="&#xa6;" horiz-adv-x="454" d="M160 -358v716h135v-716h-135zM160 666v716h135v-716h-135z" />
<glyph unicode="&#xa7;" horiz-adv-x="1024" d="M119 340q0 96 55 147.5t160 79.5q-137 76 -137 193q0 74 71.5 141.5t227.5 67.5q76 0 117.5 -15.5t103.5 -54.5l59 72h33v-248h-33q-2 10 -7 27.5t-24.5 52.5t-47 62.5t-81 49t-120.5 21.5q-47 0 -81 -11.5t-50.5 -26.5t-25.5 -34.5t-11 -31t-2 -19.5q0 -55 49 -84 t258 -104q137 -49 204.5 -107.5t67.5 -169.5q0 -94 -65.5 -153.5t-155.5 -73.5v-4q41 -23 65.5 -40.5t50 -56t25.5 -86.5q0 -80 -55 -134t-117.5 -71.5t-124.5 -17.5q-51 0 -95 11.5t-65.5 23.5t-62.5 37l-59 -70h-29v246h29q14 -39 26.5 -64.5t42 -66.5t78.5 -62.5 t115 -21.5q70 0 129 28.5t59 94.5q0 61 -49 91t-250 99q-68 23 -103.5 39.5t-83.5 49t-69.5 80.5t-21.5 114zM223 397.5q0 -63.5 73 -119t156 -85t169 -46.5q10 -2 20 -2q12 0 46 10.5t74 47.5t40 90q0 66 -103.5 127t-197.5 90t-113 29q-49 0 -106.5 -39t-57.5 -102.5z" />
<glyph unicode="&#xa8;" horiz-adv-x="681" d="M63 1032q0 37 26 63.5t65 26.5q37 0 62.5 -26.5t25.5 -63.5t-26 -62.5t-62 -25.5q-39 0 -65 25.5t-26 62.5zM440 1032q0 37 26 63.5t64 26.5q37 0 62.5 -26.5t25.5 -63.5t-25.5 -62.5t-62.5 -25.5q-39 0 -64.5 25.5t-25.5 62.5z" />
<glyph unicode="&#xa9;" horiz-adv-x="1228" d="M119 473q0 205 145.5 350.5t350 145.5t350 -145.5t145.5 -350.5q0 -207 -145.5 -352.5t-350 -145.5t-350 145.5t-145.5 352.5zM217 473q0 -170 113.5 -284.5t283.5 -114.5t284 114.5t114 284.5t-115 283.5t-283 113.5t-282.5 -113.5t-114.5 -283.5zM348 483q0 115 77 198 t214 83q90 0 156 -33q33 -16 32 -33v-92h-32q-6 45 -42 82t-102 37q-84 0 -129 -65.5t-45 -170.5q-2 -113 43 -183t135 -70q109 0 162 116h33l-25 -102q-6 -16 -30 -29q-57 -25 -152 -24q-137 0 -216 77.5t-79 208.5z" />
<glyph unicode="&#xaa;" horiz-adv-x="831" d="M33 487v21q33 6 49 10t42 25.5t48 58.5l217 367h35l258 -418q27 -43 117 -43v-21h-389v21h92l24 41l-67 108h-223l-50 -82l41 -67h62v-21h-256zM248 678h198l-88 158q-4 8 -10 8q-2 0 -10 -8z" />
<glyph unicode="&#xab;" horiz-adv-x="1138" d="M172 330l266 319h162l-266 -319l266 -320h-162zM539 330l266 319h162l-267 -319l267 -320h-162z" />
<glyph unicode="&#xac;" horiz-adv-x="978" d="M96 475v135h787v-434h-135v299h-652z" />
<glyph unicode="&#xad;" horiz-adv-x="681" d="M102 303v205h478v-205h-478z" />
<glyph unicode="&#xae;" horiz-adv-x="1228" d="M119 473q0 205 145.5 350.5t350 145.5t350 -145.5t145.5 -350.5q0 -207 -145.5 -352.5t-350 -145.5t-350 145.5t-145.5 352.5zM217 473q0 -170 113.5 -284.5t283.5 -114.5t284 114.5t114 284.5t-115 283.5t-283 113.5t-282.5 -113.5t-114.5 -283.5zM393 227v33 q35 0 49.5 12.5t14.5 44.5v336q0 59 -64 60v20h250q174 0 174 -129q0 -106 -117 -139l107 -156q33 -49 63 -49v-33h-88q-45 0 -71 43l-111 172h-39v-125q0 -33 16.5 -45t57.5 -12v-33h-242zM561 481h45q45 0 69.5 33t24.5 86q0 94 -96 94h-43v-213z" />
<glyph unicode="&#xaf;" horiz-adv-x="681" d="M90 967v116h502v-116h-502z" />
<glyph unicode="&#xb0;" horiz-adv-x="614" d="M104 766q0 84 59.5 143.5t143.5 59.5t143.5 -59.5t59.5 -143.5t-59.5 -143.5t-143.5 -59.5t-143.5 59.5t-59.5 143.5zM203 766q0 -45 29.5 -74.5t74.5 -29.5t75 29.5t30 74.5t-30 74.5t-75 29.5t-74.5 -29.5t-29.5 -74.5z" />
<glyph unicode="&#xb1;" horiz-adv-x="978" d="M96 0v135h787v-135h-787zM96 426v135h326v225h135v-225h326v-135h-326v-223h-135v223h-326z" />
<glyph unicode="&#xb2;" horiz-adv-x="815" d="M104 373v35q0 70 41 120t99.5 79.5t116 56t98.5 65.5t41 92q0 127 -138 127q-35 0 -82 -11t-47 -30q0 -2 32 -22.5t32 -53.5q0 -35 -23.5 -56t-60.5 -21t-62.5 19.5t-25.5 55.5q0 72 87 106t177 34q135 0 218 -42t83 -120q0 -53 -33.5 -87t-72.5 -47.5t-95 -21.5 q-182 -33 -239 -63q-66 -39 -66 -70q0 -10 13 -10l16 8q16 6 46 13.5t65 7.5q66 0 152.5 -33t115.5 -33q84 0 98 107h21q-4 -88 -64.5 -146.5t-154.5 -58.5q-74 0 -179.5 40t-134.5 40q-45 0 -45 -39v-41h-29z" />
<glyph unicode="&#xb3;" horiz-adv-x="815" d="M102 487q0 35 22.5 57.5t61.5 22.5q29 0 53.5 -19.5t24.5 -58.5q0 -23 -9 -41t-9 -24q0 -31 96 -31q61 0 100 14.5t53.5 41t17.5 44t3 44.5q0 78 -47 98t-207 24v21h37q117 0 157 23.5t40 109.5q0 68 -28 101.5t-97 33.5q-106 0 -107 -35q0 -12 16.5 -28.5t16.5 -38.5 q0 -63 -84 -64q-33 0 -55.5 21.5t-22.5 54.5q0 111 240 111q39 0 80 -4t99 -17.5t95 -48.5t37 -84q0 -31 -17.5 -53.5t-39 -33.5t-66.5 -32q-27 -12 -26 -16q0 -12 38 -18q51 -12 94.5 -46t43.5 -86q0 -55 -37 -89.5t-105.5 -48t-111.5 -16.5t-107 -3q-250 -1 -250 114z" />
<glyph unicode="&#xb4;" horiz-adv-x="681" d="M229 905l168 256h152l-227 -256h-93z" />
<glyph unicode="&#xb5;" horiz-adv-x="1253" d="M203 -260q0 10 14 145t14 348v553h228v-565q0 -123 153 -123q182 0 183 326v362h227v-639q0 -63 37 -63q25 0 45 38t22 99h39q-2 -100 -59 -173t-145 -73q-80 0 -115 48.5t-35 189.5h-4q-59 -238 -309 -238q-78 0 -124 29t-89 105h-4v-21q0 -90 57 -198.5t57 -151.5 q0 -47 -24.5 -77t-67.5 -30q-41 0 -70.5 31t-29.5 78z" />
<glyph unicode="&#xb6;" horiz-adv-x="1024" d="M106 672q0 123 70 197.5t199 74.5h516v-33h-53q-82 0 -82 -71v-867q0 -104 -83 -183t-235 -79q-184 0 -258 58l17 32q27 -25 87 -41t109 -16q51 0 70 6v637q-357 0 -357 285zM537 -238q121 55 120 170v979h-120v-1149z" />
<glyph unicode="&#xb7;" horiz-adv-x="626" d="M154 346.5q0 65.5 47 112.5t112.5 47t112.5 -47t47 -112.5t-47 -113t-112.5 -47.5t-112.5 47.5t-47 113z" />
<glyph unicode="&#xb8;" horiz-adv-x="681" d="M119 -348l16 59q111 -57 180 -57q61 0 92 25.5t31 60.5q0 82 -116 82q-31 0 -46 -4l-12 -6l58 188h51l-35 -123h51q76 0 118 -43t42 -92q0 -72 -67.5 -107.5t-145.5 -35.5q-106 0 -217 53z" />
<glyph unicode="&#xb9;" horiz-adv-x="815" d="M131 387v21h145l52 49v415l-60 52h-129v20h131q139 0 203 25h27v-512l71 -49h127v-21h-567z" />
<glyph unicode="&#xba;" horiz-adv-x="831" d="M70 716.5q0 114.5 105.5 183.5t240.5 69t240.5 -71t105.5 -181.5t-105.5 -180t-240.5 -69.5t-240.5 67.5t-105.5 182zM231 717q0 -35 1 -56.5t11.5 -58.5t28 -58.5t54 -39t90 -17.5t90.5 17.5t54.5 39t27.5 58.5t11 58.5t1 56.5q0 37 -1 58.5t-11 58t-27.5 58t-54.5 39 t-90.5 17.5t-90 -17.5t-54 -38t-28 -58t-11.5 -59t-1 -58.5z" />
<glyph unicode="&#xbb;" horiz-adv-x="1138" d="M172 10l266 320l-266 319h162l266 -319l-266 -320h-162zM539 10l266 320l-266 319h161l267 -319l-267 -320h-161z" />
<glyph unicode="&#xbc;" horiz-adv-x="1875" d="M131 387v21h145l52 49v415l-60 52h-129v20h131q139 0 203 25h27v-512l71 -49h127v-21h-567zM453 -25l870 994h152l-871 -994h-151zM1159 197v57l309 317h172v-342h121v-32h-121v-123l46 -54h77v-20h-458v20h114l49 54v123h-309zM1192 229h276v267q0 12 -10 12 q-12 0 -20 -8l-246 -252v-19z" />
<glyph unicode="&#xbd;" horiz-adv-x="1875" d="M131 387v21h145l52 49v415l-60 52h-129v20h131q139 0 203 25h27v-512l71 -49h127v-21h-567zM428 -25l870 994h152l-870 -994h-152zM1165 10q0 70 41 120t99.5 80t116 56.5t98.5 65.5t41 92q0 127 -138 127q-35 0 -82 -11.5t-47 -29.5q0 -2 32 -22.5t32 -53.5 q0 -35 -23.5 -56.5t-60.5 -21.5t-62.5 19.5t-25.5 56.5q0 72 87 105.5t177 33.5q135 0 218 -42t83 -119q0 -53 -34 -87t-72.5 -47.5t-94.5 -21.5q-182 -33 -239 -64q-66 -39 -66 -69q0 -10 12 -10l17 8q16 6 46 13t64 7q66 0 153 -32.5t116 -32.5q84 0 98 106h21 q-4 -88 -64.5 -146.5t-155.5 -58.5q-74 0 -179 40t-134 40q-45 0 -45 -39v-41h-29v35z" />
<glyph unicode="&#xbe;" horiz-adv-x="1875" d="M102 487q0 35 22.5 57.5t61.5 22.5q29 0 53.5 -19.5t24.5 -58.5q0 -23 -9 -41t-9 -24q0 -31 96 -31q61 0 100 14.5t53.5 41t17.5 44t3 44.5q0 78 -47 98t-207 24v21h37q117 0 157 23.5t40 109.5q0 68 -28 101.5t-97 33.5q-106 0 -107 -35q0 -12 16.5 -28.5t16.5 -38.5 q0 -63 -84 -64q-33 0 -55.5 21.5t-22.5 54.5q0 111 240 111q39 0 80 -4t99 -17.5t95 -48.5t37 -84q0 -31 -17.5 -53.5t-39 -33.5t-66.5 -32q-27 -12 -26 -16q0 -12 38 -18q51 -12 94.5 -46t43.5 -86q0 -55 -37 -89.5t-105.5 -48t-111.5 -16.5t-107 -3q-250 -1 -250 114z M440 -25l871 994h151l-870 -994h-152zM1159 197v57l309 317h172v-342h121v-32h-121v-123l46 -54h77v-20h-458v20h114l49 54v123h-309zM1192 229h276v267q0 12 -10 12q-12 0 -20 -8l-246 -252v-19z" />
<glyph unicode="&#xbf;" horiz-adv-x="1024" d="M141 20q0 133 226 244q98 47 128.5 84t39.5 144h55v-60q0 -82 -24.5 -146.5t-55.5 -96t-55.5 -76.5t-24.5 -95q0 -80 35 -117.5t115 -37.5q86 0 86 33q0 16 -17.5 42.5t-17.5 61.5q0 51 40 80t93 29q133 0 133 -121q0 -53 -36 -90t-95 -53.5t-107.5 -21.5t-99.5 -5 q-418 -1 -418 202zM397 721q0 16 12.5 35.5t51.5 37t96 17.5t96 -17.5t51.5 -37t12.5 -35.5t-12.5 -36.5t-51.5 -39t-96 -18.5t-96 18.5t-51.5 39t-12.5 36.5z" />
<glyph unicode="&#xc0;" d="M37 0v33q119 33 176 133l459 803h100l358 -840q41 -96 199 -96v-33h-643v33h145l48 61l-80 197h-453l-57 -101l76 -157h75v-33h-403zM371 336h405l-164 381q-6 6 -12 6q-8 0 -16 -10zM475 1319h152l168 -256h-93z" />
<glyph unicode="&#xc1;" d="M37 0v33q119 33 176 133l459 803h100l358 -840q41 -96 199 -96v-33h-643v33h145l48 61l-80 197h-453l-57 -101l76 -157h75v-33h-403zM371 336h405l-164 381q-6 6 -12 6q-8 0 -16 -10zM571 1063l168 256h152l-227 -256h-93z" />
<glyph unicode="&#xc2;" d="M37 0v33q119 33 176 133l459 803h100l358 -840q41 -96 199 -96v-33h-643v33h145l48 61l-80 197h-453l-57 -101l76 -157h75v-33h-403zM371 336h405l-164 381q-6 6 -12 6q-8 0 -16 -10zM410 1063l196 256h154l196 -256h-96l-176 166l-178 -166h-96z" />
<glyph unicode="&#xc3;" d="M37 0v33q119 33 176 133l459 803h100l358 -840q41 -96 199 -96v-33h-643v33h145l48 61l-80 197h-453l-57 -101l76 -157h75v-33h-403zM371 336h405l-164 381q-6 6 -12 6q-8 0 -16 -10zM406 1092q6 74 58 124t118 50q35 0 108 -21q72 -23 98 -22q43 0 60.5 13t38.5 52h74 q-6 -59 -32 -97t-60.5 -52.5t-53 -17.5t-37.5 -3q-16 0 -103 21.5t-102 21.5q-70 0 -94 -69h-73z" />
<glyph unicode="&#xc4;" d="M37 0v33q119 33 176 133l459 803h100l358 -840q41 -96 199 -96v-33h-643v33h145l48 61l-80 197h-453l-57 -101l76 -157h75v-33h-403zM371 336h405l-164 381q-6 6 -12 6q-8 0 -16 -10zM406 1190q0 37 25.5 63.5t64.5 26.5q37 0 62.5 -26.5t25.5 -63.5t-26 -62.5t-62 -25.5 q-39 0 -64.5 25.5t-25.5 62.5zM782 1190q0 37 26 63.5t64 26.5q37 0 63 -26.5t26 -63.5t-26 -62.5t-63 -25.5q-39 0 -64.5 25.5t-25.5 62.5z" />
<glyph unicode="&#xc5;" d="M37 0v33q119 33 176 133l459 803h100l358 -840q41 -96 199 -96v-33h-643v33h145l48 61l-80 197h-453l-57 -101l76 -157h75v-33h-403zM371 336h405l-164 381q-6 6 -12 6q-8 0 -16 -10zM551 1210.5q0 69.5 50 118.5t120 49t119 -49t49 -118.5t-49 -119t-119 -49.5 t-120 49.5t-50 119zM612 1210q0 -45 32 -75.5t77 -30.5q43 0 74.5 30.5t31.5 75.5q0 43 -31.5 75t-74.5 32q-45 0 -77 -32t-32 -75z" />
<glyph unicode="&#xc6;" horiz-adv-x="2048" d="M20 0v33q100 43 164 93t187 200l350 422q25 31 24 69q0 37 -29.5 63.5t-82.5 30.5v33h1257l15 -356h-33l-238 323h-323l-76 -77v-306h149l185 213h24v-458h-24l-187 206h-147v-380l68 -76h311l270 327h25v-360h-1161v33h149l82 84v317h-453l-202 -244l69 -157h111v-33 h-484zM561 473h418v438h-66z" />
<glyph unicode="&#xc7;" d="M158 477q0 205 165.5 348.5t374.5 143.5q176 0 316 -99l137 95h25v-418h-25q-8 33 -20.5 69.5t-45 98t-75.5 106.5t-116 80t-159 35q-303 0 -303 -428q0 -74 2 -114t9.5 -108.5t28 -109.5t54 -84t90 -63.5t132.5 -20.5q164 0 281.5 107.5t127.5 275.5h33 q0 -51 -19.5 -112.5t-66.5 -134t-147.5 -121t-239.5 -48.5h-6l-29 -98h51q76 0 118 -43t42 -92q0 -72 -67.5 -107.5t-145.5 -35.5q-106 0 -217 53l16 59q111 -57 180 -57q61 0 92 25.5t31 60.5q0 82 -116 82q-31 0 -45 -4l-13 -6l51 163q-211 20 -356 157.5t-145 344.5z" />
<glyph unicode="&#xc8;" d="M66 0v33h149l82 84v710l-94 84h-137v33h1142l15 -356h-33l-238 323h-323l-76 -77v-306h149l185 213h24v-458h-24l-187 206h-147v-380l68 -76h311l270 327h25v-360h-1161zM475 1319h152l168 -256h-93z" />
<glyph unicode="&#xc9;" d="M66 0v33h149l82 84v710l-94 84h-137v33h1142l15 -356h-33l-238 323h-323l-76 -77v-306h149l185 213h24v-458h-24l-187 206h-147v-380l68 -76h311l270 327h25v-360h-1161zM571 1063l168 256h152l-227 -256h-93z" />
<glyph unicode="&#xca;" d="M66 0v33h149l82 84v710l-94 84h-137v33h1142l15 -356h-33l-238 323h-323l-76 -77v-306h149l185 213h24v-458h-24l-187 206h-147v-380l68 -76h311l270 327h25v-360h-1161zM410 1063l196 256h154l196 -256h-96l-176 166l-178 -166h-96z" />
<glyph unicode="&#xcb;" d="M66 0v33h149l82 84v710l-94 84h-137v33h1142l15 -356h-33l-238 323h-323l-76 -77v-306h149l185 213h24v-458h-24l-187 206h-147v-380l68 -76h311l270 327h25v-360h-1161zM406 1190q0 37 25.5 63.5t64.5 26.5q37 0 62.5 -26.5t25.5 -63.5t-26 -62.5t-62 -25.5 q-39 0 -64.5 25.5t-25.5 62.5zM782 1190q0 37 26 63.5t64 26.5q37 0 63 -26.5t26 -63.5t-26 -62.5t-63 -25.5q-39 0 -64.5 25.5t-25.5 62.5z" />
<glyph unicode="&#xcc;" horiz-adv-x="909" d="M96 0v33h144l82 84v710l-95 84h-131v33h717v-33h-131l-94 -84v-710l82 -84h143v-33h-717zM248 1319h151l168 -256h-92z" />
<glyph unicode="&#xcd;" horiz-adv-x="909" d="M96 0v33h144l82 84v710l-95 84h-131v33h717v-33h-131l-94 -84v-710l82 -84h143v-33h-717zM344 1063l168 256h152l-228 -256h-92z" />
<glyph unicode="&#xce;" horiz-adv-x="909" d="M96 0v33h144l82 84v710l-95 84h-131v33h717v-33h-131l-94 -84v-710l82 -84h143v-33h-717zM182 1063l197 256h153l197 -256h-96l-176 166l-178 -166h-97z" />
<glyph unicode="&#xcf;" horiz-adv-x="909" d="M96 0v33h144l82 84v710l-95 84h-131v33h717v-33h-131l-94 -84v-710l82 -84h143v-33h-717zM178 1190q0 37 25.5 63.5t64.5 26.5q37 0 62.5 -26.5t25.5 -63.5t-25.5 -62.5t-62.5 -25.5q-39 0 -64.5 25.5t-25.5 62.5zM555 1190q0 37 25.5 63.5t64.5 26.5q37 0 62.5 -26.5 t25.5 -63.5t-25.5 -62.5t-62.5 -25.5q-39 0 -64.5 25.5t-25.5 62.5z" />
<glyph unicode="&#xd0;" horiz-adv-x="1478" d="M84 0v33h139l74 92v364h-213v39h213v303l-76 80h-137v33h686q264 0 421 -111.5t157 -353.5q0 -213 -143.5 -346t-373.5 -133h-747zM563 119l74 -86h178q70 0 120 28.5t76.5 69.5t41 105.5t17.5 114.5t3 120q0 86 -9 153.5t-36 138.5t-85 109.5t-146 38.5h-160l-74 -80 v-303h309v-39h-309v-370z" />
<glyph unicode="&#xd1;" horiz-adv-x="1593" d="M63 0v33h115l150 182v598q0 98 -86 98h-179v33h523l637 -745v530l-129 182h-131v33h567v-33h-103l-161 -182v-729h-211l-674 786h-10v-571l155 -182h123v-33h-586zM520 1092q6 74 58.5 124t117.5 50q35 0 109 -21q72 -23 98 -22q43 0 60.5 13t37.5 52h74 q-6 -59 -31.5 -97t-60.5 -52.5t-53.5 -17.5t-36.5 -3q-16 0 -103.5 21.5t-101.5 21.5q-70 0 -94 -69h-74z" />
<glyph unicode="&#xd2;" horiz-adv-x="1593" d="M131 471q0 219 196.5 358.5t469 139.5t469 -139.5t196.5 -358.5q0 -217 -196.5 -356.5t-469 -139.5t-469 139.5t-196.5 356.5zM406 471q0 -80 6 -138.5t29.5 -124t64.5 -106.5t114.5 -67.5t176 -26.5t176.5 26.5t114.5 67.5t64.5 106.5t30 124t6 138.5q0 102 -12.5 174 t-50.5 143.5t-119.5 109.5t-208.5 38t-209 -38t-120 -109.5t-50 -143.5t-12 -174zM590 1319h151l168 -256h-92z" />
<glyph unicode="&#xd3;" horiz-adv-x="1593" d="M131 471q0 219 196.5 358.5t469 139.5t469 -139.5t196.5 -358.5q0 -217 -196.5 -356.5t-469 -139.5t-469 139.5t-196.5 356.5zM406 471q0 -80 6 -138.5t29.5 -124t64.5 -106.5t114.5 -67.5t176 -26.5t176.5 26.5t114.5 67.5t64.5 106.5t30 124t6 138.5q0 102 -12.5 174 t-50.5 143.5t-119.5 109.5t-208.5 38t-209 -38t-120 -109.5t-50 -143.5t-12 -174zM686 1063l168 256h152l-228 -256h-92z" />
<glyph unicode="&#xd4;" horiz-adv-x="1593" d="M131 471q0 219 196.5 358.5t469 139.5t469 -139.5t196.5 -358.5q0 -217 -196.5 -356.5t-469 -139.5t-469 139.5t-196.5 356.5zM406 471q0 -80 6 -138.5t29.5 -124t64.5 -106.5t114.5 -67.5t176 -26.5t176.5 26.5t114.5 67.5t64.5 106.5t30 124t6 138.5q0 102 -12.5 174 t-50.5 143.5t-119.5 109.5t-208.5 38t-209 -38t-120 -109.5t-50 -143.5t-12 -174zM524 1063l197 256h153l197 -256h-96l-176 166l-178 -166h-97z" />
<glyph unicode="&#xd5;" horiz-adv-x="1593" d="M131 471q0 219 196.5 358.5t469 139.5t469 -139.5t196.5 -358.5q0 -217 -196.5 -356.5t-469 -139.5t-469 139.5t-196.5 356.5zM406 471q0 -80 6 -138.5t29.5 -124t64.5 -106.5t114.5 -67.5t176 -26.5t176.5 26.5t114.5 67.5t64.5 106.5t30 124t6 138.5q0 102 -12.5 174 t-50.5 143.5t-119.5 109.5t-208.5 38t-209 -38t-120 -109.5t-50 -143.5t-12 -174zM520 1092q6 74 58.5 124t117.5 50q35 0 109 -21q72 -23 98 -22q43 0 60.5 13t37.5 52h74q-6 -59 -31.5 -97t-60.5 -52.5t-53.5 -17.5t-36.5 -3q-16 0 -103.5 21.5t-101.5 21.5q-70 0 -94 -69 h-74z" />
<glyph unicode="&#xd6;" horiz-adv-x="1593" d="M131 471q0 219 196.5 358.5t469 139.5t469 -139.5t196.5 -358.5q0 -217 -196.5 -356.5t-469 -139.5t-469 139.5t-196.5 356.5zM406 471q0 -80 6 -138.5t29.5 -124t64.5 -106.5t114.5 -67.5t176 -26.5t176.5 26.5t114.5 67.5t64.5 106.5t30 124t6 138.5q0 102 -12.5 174 t-50.5 143.5t-119.5 109.5t-208.5 38t-209 -38t-120 -109.5t-50 -143.5t-12 -174zM520 1190q0 37 25.5 63.5t64.5 26.5q37 0 62.5 -26.5t25.5 -63.5t-25.5 -62.5t-62.5 -25.5q-39 0 -64.5 25.5t-25.5 62.5zM897 1190q0 37 25.5 63.5t64.5 26.5q37 0 62.5 -26.5t25.5 -63.5 t-25.5 -62.5t-62.5 -25.5q-39 0 -64.5 25.5t-25.5 62.5z" />
<glyph unicode="&#xd7;" horiz-adv-x="978" d="M131 119l272 274l-272 275l86 84l272 -273l273 273l86 -84l-273 -275l273 -274l-86 -84l-273 272l-272 -272z" />
<glyph unicode="&#xd8;" horiz-adv-x="1593" d="M131 471q0 219 196.5 358.5t469.5 139.5q135 0 272 -41l135 192h99l-154 -223q145 -66 229 -176.5t84 -249.5q0 -217 -196.5 -356.5t-468.5 -139.5q-135 0 -262 41l-160 -231h-99l181 260q-150 61 -238 173t-88 253zM406 471q0 -256 96 -360l534 768q-86 57 -239 57 q-127 0 -209 -38t-120 -109.5t-50 -143.5t-12 -174zM565 61q84 -53 232 -53q102 0 176 26.5t114.5 67.5t64.5 106.5t30 124t6 138.5q0 252 -88 354z" />
<glyph unicode="&#xd9;" horiz-adv-x="1593" d="M70 911v33h716v-33h-147l-76 -84v-610q0 -78 74 -143.5t235 -65.5q57 0 109.5 8.5t116 32t102.5 79.5t39 138v475l-154 170h-122v33h587v-33h-118l-156 -170v-460q0 -305 -442 -306q-94 0 -176.5 11.5t-170.5 40t-139 91t-51 154.5v555l-86 84h-141zM590 1319h151 l168 -256h-92z" />
<glyph unicode="&#xda;" horiz-adv-x="1593" d="M70 911v33h716v-33h-147l-76 -84v-610q0 -78 74 -143.5t235 -65.5q57 0 109.5 8.5t116 32t102.5 79.5t39 138v475l-154 170h-122v33h587v-33h-118l-156 -170v-460q0 -305 -442 -306q-94 0 -176.5 11.5t-170.5 40t-139 91t-51 154.5v555l-86 84h-141zM686 1063l168 256 h152l-228 -256h-92z" />
<glyph unicode="&#xdb;" horiz-adv-x="1593" d="M70 911v33h716v-33h-147l-76 -84v-610q0 -78 74 -143.5t235 -65.5q57 0 109.5 8.5t116 32t102.5 79.5t39 138v475l-154 170h-122v33h587v-33h-118l-156 -170v-460q0 -305 -442 -306q-94 0 -176.5 11.5t-170.5 40t-139 91t-51 154.5v555l-86 84h-141zM524 1063l197 256 h153l197 -256h-96l-176 166l-178 -166h-97z" />
<glyph unicode="&#xdc;" horiz-adv-x="1593" d="M70 911v33h716v-33h-147l-76 -84v-610q0 -78 74 -143.5t235 -65.5q57 0 109.5 8.5t116 32t102.5 79.5t39 138v475l-154 170h-122v33h587v-33h-118l-156 -170v-460q0 -305 -442 -306q-94 0 -176.5 11.5t-170.5 40t-139 91t-51 154.5v555l-86 84h-141zM520 1190 q0 37 25.5 63.5t64.5 26.5q37 0 62.5 -26.5t25.5 -63.5t-25.5 -62.5t-62.5 -25.5q-39 0 -64.5 25.5t-25.5 62.5zM897 1190q0 37 25.5 63.5t64.5 26.5q37 0 62.5 -26.5t25.5 -63.5t-25.5 -62.5t-62.5 -25.5q-39 0 -64.5 25.5t-25.5 62.5z" />
<glyph unicode="&#xdd;" d="M41 911v33h635v-33h-55l-58 -71l201 -361q4 -10 10 -10q10 0 17 10l188 289l-129 143h-70v33h545v-33h-106l-211 -176l-199 -295v-323l82 -84h160v-33h-744v33h154l82 84v258l-273 456l-86 80h-143zM571 1063l168 256h152l-227 -256h-93z" />
<glyph unicode="&#xde;" d="M84 0v33h129l84 90v696l-94 92h-119v33h719v-33h-172l-68 -80v-86h277q72 0 139.5 -9t146 -32.5t126.5 -77t48 -131t-47 -134t-124.5 -83t-149.5 -38t-145 -11.5h-271v-114l82 -82h158v-33h-719zM563 268h189q74 0 126 15.5t78.5 37t42 55.5t18.5 59.5t3 60.5 q0 59 -17.5 102t-39 63.5t-56.5 32t-52 12.5t-42 1h-250v-439z" />
<glyph unicode="&#xdf;" horiz-adv-x="2277" d="M156 555q0 102 85 179t263 77q78 0 144.5 -15.5t95 -28.5t77.5 -40l82 78h25v-242h-25q-104 215 -399 215q-113 0 -169 -38t-56 -93q0 -27 8 -46t29.5 -33.5t39 -22.5t59.5 -15.5t65.5 -9.5t78.5 -8q66 -6 101.5 -11t94 -16.5t91.5 -30t68.5 -47t52 -72.5t16.5 -102 q0 -74 -31.5 -126t-71.5 -76.5t-98.5 -37.5t-86 -15.5t-60.5 -2.5q-166 0 -332 88l-100 -88h-25v283h25q133 -250 446 -250q94 0 165 40t71 111.5t-63.5 91t-303.5 40.5q-362 28 -362 264zM1294 555q0 102 85 179t263 77q78 0 144.5 -15.5t95.5 -28.5t78 -40l82 78h24v-242 h-24q-104 215 -400 215q-113 0 -169 -38t-56 -93q0 -27 8.5 -46t30 -33.5t38.5 -22.5t59 -15.5t65.5 -9.5t79.5 -8q66 -6 101.5 -11t94 -16.5t91 -30t68.5 -47t52.5 -72.5t16.5 -102q0 -74 -32 -126t-72 -76.5t-98 -37.5t-86 -15.5t-60 -2.5q-166 0 -332 88l-101 -88h-24 v283h24q133 -250 447 -250q94 0 164.5 40t70.5 111.5t-63.5 91t-302.5 40.5q-363 28 -363 264z" />
<glyph unicode="&#xe0;" horiz-adv-x="1251" d="M37 0v33q51 10 76.5 18t65.5 43t73 96l334 611h55l395 -697q18 -33 51 -50t57.5 -19t69.5 -2v-33h-596v33h142l37 69l-105 183h-344l-74 -138l64 -114h86v-33h-387zM369 317h305l-135 265q-4 12 -15 12q-8 0 -16 -12zM418 1161h151l168 -256h-92z" />
<glyph unicode="&#xe1;" horiz-adv-x="1251" d="M37 0v33q51 10 76.5 18t65.5 43t73 96l334 611h55l395 -697q18 -33 51 -50t57.5 -19t69.5 -2v-33h-596v33h142l37 69l-105 183h-344l-74 -138l64 -114h86v-33h-387zM369 317h305l-135 265q-4 12 -15 12q-8 0 -16 -12zM514 905l168 256h152l-228 -256h-92z" />
<glyph unicode="&#xe2;" horiz-adv-x="1251" d="M37 0v33q51 10 76.5 18t65.5 43t73 96l334 611h55l395 -697q18 -33 51 -50t57.5 -19t69.5 -2v-33h-596v33h142l37 69l-105 183h-344l-74 -138l64 -114h86v-33h-387zM352 905l197 256h153l197 -256h-96l-176 166l-178 -166h-97zM369 317h305l-135 265q-4 12 -15 12 q-8 0 -16 -12z" />
<glyph unicode="&#xe3;" horiz-adv-x="1251" d="M37 0v33q51 10 76.5 18t65.5 43t73 96l334 611h55l395 -697q18 -33 51 -50t57.5 -19t69.5 -2v-33h-596v33h142l37 69l-105 183h-344l-74 -138l64 -114h86v-33h-387zM348 934q6 74 58.5 124t117.5 50q35 0 109 -21q72 -23 98 -22q43 0 60.5 13.5t37.5 51.5h74 q-6 -59 -31.5 -97t-60.5 -52t-53.5 -17t-36.5 -3q-16 0 -103.5 21.5t-101.5 21.5q-70 0 -94 -70h-74zM369 317h305l-135 265q-4 12 -15 12q-8 0 -16 -12z" />
<glyph unicode="&#xe4;" horiz-adv-x="1251" d="M37 0v33q51 10 76.5 18t65.5 43t73 96l334 611h55l395 -697q18 -33 51 -50t57.5 -19t69.5 -2v-33h-596v33h142l37 69l-105 183h-344l-74 -138l64 -114h86v-33h-387zM348 1032q0 37 25.5 63.5t64.5 26.5q37 0 62.5 -26.5t25.5 -63.5t-25.5 -62.5t-62.5 -25.5 q-39 0 -64.5 25.5t-25.5 62.5zM369 317h305l-135 265q-4 12 -15 12q-8 0 -16 -12zM725 1032q0 37 25.5 63.5t64.5 26.5q37 0 62.5 -26.5t25.5 -63.5t-25.5 -62.5t-62.5 -25.5q-39 0 -64.5 25.5t-25.5 62.5z" />
<glyph unicode="&#xe5;" horiz-adv-x="1251" d="M37 0v33q51 10 76.5 18t65.5 43t73 96l334 611h55l395 -697q18 -33 51 -50t57.5 -19t69.5 -2v-33h-596v33h142l37 69l-105 183h-344l-74 -138l64 -114h86v-33h-387zM369 317h305l-135 265q-4 12 -15 12q-8 0 -16 -12zM432 1052.5q0 69.5 50 119t120 49.5t119 -49.5 t49 -119t-49 -118.5t-119 -49t-120 49t-50 118.5zM494 1053q0 -45 31.5 -76t76.5 -31q43 0 75 31t32 76q0 43 -32 74.5t-75 31.5q-45 0 -76.5 -31.5t-31.5 -74.5z" />
<glyph unicode="&#xe6;" horiz-adv-x="1820" d="M41 0v33q66 0 117 61l448 543q18 23 19 51q0 43 -34 54.5t-116 11.5v32h1194v-284h-33l-151 252h-369l-72 -76v-272h189l115 184h32v-404h-32l-117 187h-187v-267l72 -73h338l221 313h33l-16 -346h-1078v33h115l80 71v181h-442l-113 -144l47 -108h100v-33h-360zM397 317 h412v437h-51z" />
<glyph unicode="&#xe7;" horiz-adv-x="1175" d="M94 383q0 186 158 307t348 121q76 0 135.5 -14.5t87 -29.5t76.5 -46l119 90h33v-352h-33q-47 168 -153.5 243.5t-227.5 75.5q-297 0 -297 -383q0 -49 2 -82.5t18.5 -97t46 -103.5t92 -72t150.5 -32q43 0 93.5 13.5t110.5 45t115.5 95t86.5 149.5h32q-10 -29 -18 -49 t-46 -78.5t-83 -97.5t-126 -74t-179 -37l-27 -98h51q76 0 118 -43t42 -92q0 -72 -67.5 -107.5t-145.5 -35.5q-106 0 -217 53l17 59q111 -57 180 -57q61 0 92 25.5t31 60.5q0 82 -117 82q-31 0 -45 -4l-12 -6l49 163q-217 12 -353.5 132t-136.5 276z" />
<glyph unicode="&#xe8;" horiz-adv-x="1251" d="M51 0v33h144l67 73v574l-67 74h-144v32h1049v-284h-33l-152 252h-346l-71 -76v-272h166l114 184h33v-404h-33l-116 187h-164v-267l71 -73h316l221 313h33l-17 -346h-1071zM418 1161h151l168 -256h-92z" />
<glyph unicode="&#xe9;" horiz-adv-x="1251" d="M51 0v33h144l67 73v574l-67 74h-144v32h1049v-284h-33l-152 252h-346l-71 -76v-272h166l114 184h33v-404h-33l-116 187h-164v-267l71 -73h316l221 313h33l-17 -346h-1071zM514 905l168 256h152l-228 -256h-92z" />
<glyph unicode="&#xea;" horiz-adv-x="1251" d="M51 0v33h144l67 73v574l-67 74h-144v32h1049v-284h-33l-152 252h-346l-71 -76v-272h166l114 184h33v-404h-33l-116 187h-164v-267l71 -73h316l221 313h33l-17 -346h-1071zM352 905l197 256h153l197 -256h-96l-176 166l-178 -166h-97z" />
<glyph unicode="&#xeb;" horiz-adv-x="1251" d="M51 0v33h144l67 73v574l-67 74h-144v32h1049v-284h-33l-152 252h-346l-71 -76v-272h166l114 184h33v-404h-33l-116 187h-164v-267l71 -73h316l221 313h33l-17 -346h-1071zM348 1032q0 37 25.5 63.5t64.5 26.5q37 0 62.5 -26.5t25.5 -63.5t-25.5 -62.5t-62.5 -25.5 q-39 0 -64.5 25.5t-25.5 62.5zM725 1032q0 37 25.5 63.5t64.5 26.5q37 0 62.5 -26.5t25.5 -63.5t-25.5 -62.5t-62.5 -25.5q-39 0 -64.5 25.5t-25.5 62.5z" />
<glyph unicode="&#xec;" horiz-adv-x="796" d="M76 0v33h141l68 73v574l-68 74h-141v32h645v-32h-129l-80 -74v-574l80 -73h129v-33h-645zM190 1161h152l168 -256h-92z" />
<glyph unicode="&#xed;" horiz-adv-x="796" d="M76 0v33h141l68 73v574l-68 74h-141v32h645v-32h-129l-80 -74v-574l80 -73h129v-33h-645zM287 905l168 256h151l-227 -256h-92z" />
<glyph unicode="&#xee;" horiz-adv-x="796" d="M76 0v33h141l68 73v574l-68 74h-141v32h645v-32h-129l-80 -74v-574l80 -73h129v-33h-645zM125 905l197 256h153l197 -256h-97l-176 166l-178 -166h-96z" />
<glyph unicode="&#xef;" horiz-adv-x="796" d="M76 0v33h141l68 73v574l-68 74h-141v32h645v-32h-129l-80 -74v-574l80 -73h129v-33h-645zM121 1032q0 37 25.5 63.5t64.5 26.5q37 0 62.5 -26.5t25.5 -63.5t-25.5 -62.5t-62.5 -25.5q-39 0 -64.5 25.5t-25.5 62.5zM498 1032q0 37 25.5 63.5t64.5 26.5q37 0 62.5 -26.5 t25.5 -63.5t-25.5 -62.5t-62.5 -25.5q-39 0 -64.5 25.5t-25.5 62.5z" />
<glyph unicode="&#xf0;" d="M51 0v33h152l73 71v289h-200v33h200v252l-69 76h-156v32h649q166 0 283 -37.5t173 -100t80 -125t24 -132.5q0 -168 -154 -279.5t-406 -111.5h-649zM494 109l69 -76h133q84 0 144.5 23.5t91.5 56t48 86t20.5 93.5t3.5 99.5t-3.5 99t-20.5 94t-48 88.5t-91.5 57.5 t-144.5 23.5h-127l-75 -76v-252h313v-33h-313v-284z" />
<glyph unicode="&#xf1;" d="M74 0v33h112l95 123v501q0 96 -68 97h-139v32h395l571 -505v350l-96 123h-129v32h477v-32h-108l-99 -121v-633h-57l-702 614v-452l100 -129h137v-33h-489zM406 934q6 74 58 124t118 50q35 0 108 -21q72 -23 98 -22q43 0 60.5 13.5t38.5 51.5h74q-6 -59 -32 -97t-60.5 -52 t-53 -17t-37.5 -3q-16 0 -103 21.5t-102 21.5q-70 0 -94 -70h-73z" />
<glyph unicode="&#xf2;" horiz-adv-x="1253" d="M94 393.5q0 190.5 162 304t371 113.5t370.5 -116.5t161.5 -301t-161.5 -301.5t-370.5 -117t-371 114t-162 304.5zM340 393.5q0 -61.5 2 -97.5t16.5 -97.5t43 -97t86 -64.5t139.5 -29t139 29t86 64.5t43 98t16 98.5t2 95.5t-2 95t-16 98t-43 98.5t-86 64.5t-139 28.5 t-139.5 -28.5t-86 -64.5t-43 -97.5t-16.5 -97t-2 -97zM420 1161h151l168 -256h-92z" />
<glyph unicode="&#xf3;" horiz-adv-x="1253" d="M94 393.5q0 190.5 162 304t371 113.5t370.5 -116.5t161.5 -301t-161.5 -301.5t-370.5 -117t-371 114t-162 304.5zM340 393.5q0 -61.5 2 -97.5t16.5 -97.5t43 -97t86 -64.5t139.5 -29t139 29t86 64.5t43 98t16 98.5t2 95.5t-2 95t-16 98t-43 98.5t-86 64.5t-139 28.5 t-139.5 -28.5t-86 -64.5t-43 -97.5t-16.5 -97t-2 -97zM516 905l168 256h152l-228 -256h-92z" />
<glyph unicode="&#xf4;" horiz-adv-x="1253" d="M94 393.5q0 190.5 162 304t371 113.5t370.5 -116.5t161.5 -301t-161.5 -301.5t-370.5 -117t-371 114t-162 304.5zM340 393.5q0 -61.5 2 -97.5t16.5 -97.5t43 -97t86 -64.5t139.5 -29t139 29t86 64.5t43 98t16 98.5t2 95.5t-2 95t-16 98t-43 98.5t-86 64.5t-139 28.5 t-139.5 -28.5t-86 -64.5t-43 -97.5t-16.5 -97t-2 -97zM354 905l197 256h154l196 -256h-96l-176 166l-178 -166h-97z" />
<glyph unicode="&#xf5;" horiz-adv-x="1253" d="M94 393.5q0 190.5 162 304t371 113.5t370.5 -116.5t161.5 -301t-161.5 -301.5t-370.5 -117t-371 114t-162 304.5zM340 393.5q0 -61.5 2 -97.5t16.5 -97.5t43 -97t86 -64.5t139.5 -29t139 29t86 64.5t43 98t16 98.5t2 95.5t-2 95t-16 98t-43 98.5t-86 64.5t-139 28.5 t-139.5 -28.5t-86 -64.5t-43 -97.5t-16.5 -97t-2 -97zM350 934q6 74 58.5 124t117.5 50q35 0 109 -21q72 -23 98 -22q43 0 60.5 13.5t37.5 51.5h74q-6 -59 -31.5 -97t-60.5 -52t-53.5 -17t-36.5 -3q-16 0 -103.5 21.5t-101.5 21.5q-70 0 -94 -70h-74z" />
<glyph unicode="&#xf6;" horiz-adv-x="1253" d="M94 393.5q0 190.5 162 304t371 113.5t370.5 -116.5t161.5 -301t-161.5 -301.5t-370.5 -117t-371 114t-162 304.5zM340 393.5q0 -61.5 2 -97.5t16.5 -97.5t43 -97t86 -64.5t139.5 -29t139 29t86 64.5t43 98t16 98.5t2 95.5t-2 95t-16 98t-43 98.5t-86 64.5t-139 28.5 t-139.5 -28.5t-86 -64.5t-43 -97.5t-16.5 -97t-2 -97zM350 1032q0 37 25.5 63.5t64.5 26.5q37 0 62.5 -26.5t25.5 -63.5t-25.5 -62.5t-62.5 -25.5q-39 0 -64.5 25.5t-25.5 62.5zM727 1032q0 37 25.5 63.5t64.5 26.5q37 0 62.5 -26.5t25.5 -63.5t-25.5 -62.5t-62.5 -25.5 q-39 0 -64.5 25.5t-25.5 62.5z" />
<glyph unicode="&#xf7;" horiz-adv-x="978" d="M96 326v135h787v-135h-787zM367 98.5q0 51.5 35.5 87t87 35.5t87 -35.5t35.5 -87t-35.5 -87.5t-87 -36t-87 36t-35.5 87.5zM367 688q0 51 35.5 87t87 36t87 -36t35.5 -87t-35.5 -87t-87 -36t-87 36t-35.5 87z" />
<glyph unicode="&#xf8;" horiz-adv-x="1253" d="M94 393q0 190 162 304t371 114q119 0 217 -39l143 205h90l-164 -234q111 -53 178.5 -144t67.5 -206q0 -184 -161.5 -301t-370.5 -117q-121 0 -224 39l-159 -229h-90l180 258q-240 119 -240 350zM340 393q0 -186 51 -268l418 598q-66 55 -182 55q-82 0 -139.5 -28.5 t-86 -64.5t-43 -97.5t-16.5 -97.5t-2 -97zM440 66q63 -57 187 -58q82 0 139 29t86 64.5t43 98t16 98.5t2 95q0 193 -53 275z" />
<glyph unicode="&#xf9;" d="M51 754v32h627v-32h-129l-74 -72v-522q0 -145 230 -146q182 0 268 70t86 227v310l-119 133h-137v32h512v-32h-90l-127 -142v-311q0 -178 -110.5 -252t-315.5 -74q-223 0 -323.5 63.5t-100.5 221.5v418l-68 76h-129zM475 1161h152l168 -256h-93z" />
<glyph unicode="&#xfa;" d="M51 754v32h627v-32h-129l-74 -72v-522q0 -145 230 -146q182 0 268 70t86 227v310l-119 133h-137v32h512v-32h-90l-127 -142v-311q0 -178 -110.5 -252t-315.5 -74q-223 0 -323.5 63.5t-100.5 221.5v418l-68 76h-129zM571 905l168 256h152l-227 -256h-93z" />
<glyph unicode="&#xfb;" d="M51 754v32h627v-32h-129l-74 -72v-522q0 -145 230 -146q182 0 268 70t86 227v310l-119 133h-137v32h512v-32h-90l-127 -142v-311q0 -178 -110.5 -252t-315.5 -74q-223 0 -323.5 63.5t-100.5 221.5v418l-68 76h-129zM410 905l196 256h154l196 -256h-96l-176 166l-178 -166 h-96z" />
<glyph unicode="&#xfc;" d="M51 754v32h627v-32h-129l-74 -72v-522q0 -145 230 -146q182 0 268 70t86 227v310l-119 133h-137v32h512v-32h-90l-127 -142v-311q0 -178 -110.5 -252t-315.5 -74q-223 0 -323.5 63.5t-100.5 221.5v418l-68 76h-129zM406 1032q0 37 25.5 63.5t64.5 26.5q37 0 62.5 -26.5 t25.5 -63.5t-26 -62.5t-62 -25.5q-39 0 -64.5 25.5t-25.5 62.5zM782 1032q0 37 26 63.5t64 26.5q37 0 63 -26.5t26 -63.5t-26 -62.5t-63 -25.5q-39 0 -64.5 25.5t-25.5 62.5z" />
<glyph unicode="&#xfd;" horiz-adv-x="1251" d="M86 754v32h516v-32h-63l-43 -76l178 -305q6 -12 14 -12.5t14 10.5l203 274l-102 109h-68v32h461v-32h-98l-166 -142l-209 -286v-217l76 -76h131v-33h-639v33h137l68 82v147l-244 412l-74 80h-92zM514 905l168 256h152l-228 -256h-92z" />
<glyph unicode="&#xfe;" horiz-adv-x="1251" d="M76 0v33h143l64 73v572l-64 76h-143v32h637v-32h-135l-68 -70v-63h313q98 0 171 -19.5t106 -42t52 -56.5t21.5 -48.5t2.5 -30.5q0 -225 -412 -225h-254v-93l72 -73h131v-33h-637zM510 231h238q90 0 145 46.5t55 134.5q0 57 -19.5 96t-50 54.5t-51 20.5t-41.5 5h-276v-357 z" />
<glyph unicode="&#xff;" horiz-adv-x="1251" d="M86 754v32h516v-32h-63l-43 -76l178 -305q6 -12 14 -12.5t14 10.5l203 274l-102 109h-68v32h461v-32h-98l-166 -142l-209 -286v-217l76 -76h131v-33h-639v33h137l68 82v147l-244 412l-74 80h-92zM348 1032q0 37 25.5 63.5t64.5 26.5q37 0 62.5 -26.5t25.5 -63.5 t-25.5 -62.5t-62.5 -25.5q-39 0 -64.5 25.5t-25.5 62.5zM725 1032q0 37 25.5 63.5t64.5 26.5q37 0 62.5 -26.5t25.5 -63.5t-25.5 -62.5t-62.5 -25.5q-39 0 -64.5 25.5t-25.5 62.5z" />
<glyph unicode="&#x152;" horiz-adv-x="2156" d="M131 473q0 170 88 279.5t215 150.5t289 41h1276l14 -356h-33l-237 323h-324l-76 -77v-306h150l184 213h25v-458h-25l-186 206h-148v-380l68 -76h311l271 327h24v-360h-1259q-57 0 -91 1t-98.5 6t-106.5 18.5t-98.5 34t-93.5 56.5t-71.5 84t-51 117.5t-16.5 155.5z M406 473q0 -57 2 -91t10 -94.5t29.5 -98t57.5 -77.5t96.5 -59.5t140 -19.5t140 19.5t96.5 59.5t57.5 77.5t29.5 98t10 94.5t2 91t-2 90t-10 93.5t-29.5 98.5t-56.5 77.5t-96.5 59t-141 19.5t-141 -19.5t-96.5 -59t-56.5 -77.5t-29.5 -98.5t-10 -93.5t-2 -90z" />
<glyph unicode="&#x153;" horiz-adv-x="1976" d="M94 375q0 205 151.5 308t364.5 103h1215v-284h-33l-152 252h-407l-72 -76v-272h205l115 184h32v-404h-32l-117 187h-203v-267l72 -73h377l221 313h33l-17 -346h-1267q-119 0 -210 28.5t-141.5 69.5t-82 95.5t-42 97.5t-10.5 84zM340 362q0 -80 9 -132t38 -101t90.5 -72.5 t155.5 -23.5q61 0 108 10t78 24.5t52.5 44t31.5 53t15.5 69t6.5 73t1 84.5v76q0 25 -3 64.5t-8.5 59t-15.5 48.5t-26.5 42t-39 30.5t-53 24.5t-71.5 12.5t-93 5.5q-74 0 -127 -23.5t-81.5 -58.5t-44 -92.5t-19.5 -103.5t-4 -114z" />
<glyph unicode="&#x178;" d="M41 911v33h635v-33h-55l-58 -71l201 -361q4 -10 10 -10q10 0 17 10l188 289l-129 143h-70v33h545v-33h-106l-211 -176l-199 -295v-323l82 -84h160v-33h-744v33h154l82 84v258l-273 456l-86 80h-143zM406 1190q0 37 25.5 63.5t64.5 26.5q37 0 62.5 -26.5t25.5 -63.5 t-26 -62.5t-62 -25.5q-39 0 -64.5 25.5t-25.5 62.5zM782 1190q0 37 26 63.5t64 26.5q37 0 63 -26.5t26 -63.5t-26 -62.5t-63 -25.5q-39 0 -64.5 25.5t-25.5 62.5z" />
<glyph unicode="&#x2c6;" horiz-adv-x="681" d="M68 905l196 256h154l196 -256h-96l-176 166l-178 -166h-96z" />
<glyph unicode="&#x2dc;" horiz-adv-x="681" d="M63 934q6 74 58.5 124t118.5 50q35 0 108 -21q72 -23 98 -22q43 0 60.5 13.5t38.5 51.5h73q-6 -59 -31.5 -97t-60 -52t-53 -17t-37.5 -3q-16 0 -103 21.5t-102 21.5q-70 0 -94 -70h-74z" />
<glyph unicode="&#x2013;" horiz-adv-x="1024" d="M0 330v151h1024v-151h-1024z" />
<glyph unicode="&#x2014;" horiz-adv-x="2048" d="M0 330v151h2048v-151h-2048z" />
<glyph unicode="&#x2018;" horiz-adv-x="626" d="M145 596q0 145 106.5 238.5t260.5 134.5v-58q-215 -82 -215 -172q0 -35 18 -34q68 0 113 -43.5t45 -116.5q0 -66 -47 -113t-113 -47q-76 0 -122 61.5t-46 149.5z" />
<glyph unicode="&#x2019;" horiz-adv-x="626" d="M115 385v57q215 82 215 172q0 35 -19 35q-68 0 -112.5 43t-44.5 117q0 66 47 113t112 47q76 0 122 -61.5t46 -149.5q0 -145 -106 -238.5t-260 -134.5z" />
<glyph unicode="&#x201a;" horiz-adv-x="626" d="M115 -231q215 82 215 172q0 35 -19 34q-68 0 -112.5 43t-44.5 117q0 66 47 113t112 47q76 0 122 -61.5t46 -149.5q0 -145 -106.5 -238.5t-259.5 -134.5v58z" />
<glyph unicode="&#x201c;" horiz-adv-x="1024" d="M102 596q0 145 106.5 238.5t260.5 134.5v-58q-215 -82 -215 -172q0 -35 18 -34q68 0 113 -43.5t45 -116.5q0 -66 -47 -113t-113 -47q-76 0 -122 61.5t-46 149.5zM588 596q0 145 106.5 238.5t259.5 134.5v-58q-215 -82 -215 -172q0 -35 19 -34q68 0 112.5 -43.5 t44.5 -116.5q0 -66 -47 -113t-112 -47q-76 0 -122 61.5t-46 149.5z" />
<glyph unicode="&#x201d;" horiz-adv-x="1024" d="M70 385v57q215 82 215 172q0 35 -19 35q-68 0 -112.5 43t-44.5 117q0 66 47 113t112 47q76 0 122 -61.5t46 -149.5q0 -145 -106 -238.5t-260 -134.5zM555 385v57q215 82 215 172q0 35 -18 35q-68 0 -113 43t-45 117q0 66 47 113t113 47q76 0 122 -61.5t46 -149.5 q0 -145 -106.5 -238.5t-260.5 -134.5z" />
<glyph unicode="&#x201e;" horiz-adv-x="1024" d="M70 -231q215 82 215 172q0 35 -19 34q-68 0 -112.5 43t-44.5 117q0 66 47 113t112 47q76 0 122 -61.5t46 -149.5q0 -145 -106.5 -238.5t-259.5 -134.5v58zM555 -231q215 82 215 172q0 35 -18 34q-68 0 -113 43t-45 117q0 66 47 113t113 47q76 0 122 -61.5t46 -149.5 q0 -145 -106.5 -238.5t-260.5 -134.5v58z" />
<glyph unicode="&#x2022;" horiz-adv-x="1024" d="M276 473q0 96 69 166t167 70t167 -70t69 -166q0 -98 -69 -167.5t-167 -69.5t-167 69.5t-69 167.5z" />
<glyph unicode="&#x2026;" horiz-adv-x="2048" d="M182 135.5q0 65.5 47 112.5t113 47t113 -47t47 -112.5t-47 -113t-113 -47.5t-113 47.5t-47 113zM864 135.5q0 65.5 47 112.5t113 47t113 -47t47 -112.5t-47 -113t-113 -47.5t-113 47.5t-47 113zM1546 135.5q0 65.5 47 112.5t113 47t113 -47t47 -112.5t-47 -113 t-113 -47.5t-113 47.5t-47 113z" />
<glyph unicode="&#x2039;" horiz-adv-x="796" d="M184 330l267 319h161l-266 -319l266 -320h-161z" />
<glyph unicode="&#x203a;" horiz-adv-x="796" d="M184 10l267 320l-267 319h162l266 -319l-266 -320h-162z" />
<glyph unicode="&#x20ac;" horiz-adv-x="1253" d="M80 344v55h90q-2 18 -2 52q0 25 2 43h-90v55h96q23 199 169.5 309.5t412.5 110.5q166 0 276.5 -51.5t110.5 -137.5q0 -35 -24.5 -59.5t-69.5 -24.5q-41 0 -69 28t-28 71q0 20 8.5 43.5t8.5 29.5q0 68 -213 68q-258 0 -289 -387h475v-55h-477q-2 -18 -2 -45q0 -31 2 -50 h391v-55h-389q35 -334 289 -334q291 -4 334 168h32q-47 -201 -366 -201q-508 0 -580 367h-98z" />
<glyph unicode="&#x2122;" horiz-adv-x="1351" d="M61 831v113h439v-113h-33q-10 80 -76 80h-59v-387q0 -31 13 -43t46 -12v-33h-221v33q33 0 46 12.5t13 42.5v387h-59q-66 0 -76 -80h-33zM559 911v33h166l174 -362l193 362h145v-33q-39 0 -52.5 -14t-13.5 -47v-324q0 -33 12.5 -45t45.5 -12v-33h-219v33q33 0 45 12.5 t12 44.5v269h-4l-176 -359h-21l-182 371h-2v-281q0 -33 13.5 -45t47.5 -12v-33h-163v33q57 0 57 57v324q0 14 -24.5 37.5t-53.5 23.5z" />
<glyph unicode="&#xe000;" horiz-adv-x="785" d="M0 785h785v-785h-785v785z" />
<glyph unicode="&#xfb01;" horiz-adv-x="2048" d="M76 0v33h147l68 73v574l-68 74h-147v32h1067v-325h-33l-164 293h-330l-98 -80v-248h182l107 182h33v-403h-33l-107 188h-182v-287l80 -73h141v-33h-663zM1327 0v33h148l67 73v574l-67 74h-148v32h645v-32h-123l-80 -74v-574l80 -73h123v-33h-645z" />
<glyph unicode="&#xfb02;" horiz-adv-x="2502" d="M76 0v33h147l68 73v574l-68 74h-147v32h1067v-325h-33l-164 293h-330l-98 -80v-248h182l107 182h33v-403h-33l-107 188h-182v-287l80 -73h141v-33h-663zM1303 0v33h137l67 73v574l-67 74h-137v32h665v-32h-153l-80 -74v-574l80 -73h327l234 364h32v-397h-1105z" />
<glyph unicode="&#xfb03;" horiz-adv-x="3299" d="M2579 0v33h141l68 73v574l-68 74h-141v32h645v-32h-129l-80 -74v-574l80 -73h129v-33h-645zM1327 0v33h147l68 73v574l-68 74h-147v32h1067v-325h-33l-164 293h-330l-98 -80v-248h182l107 182h33v-403h-33l-107 188h-182v-287l80 -73h141v-33h-663zM76 0v33h147l68 73 v574l-68 74h-147v32h1067v-325h-33l-164 293h-330l-98 -80v-248h182l107 182h33v-403h-33l-107 188h-182v-287l80 -73h141v-33h-663z" />
<glyph unicode="&#xfb04;" horiz-adv-x="3753" d="M2554 0v33h137l68 73v574l-68 74h-137v32h666v-32h-154l-80 -74v-574l80 -73h328l233 364h33v-397h-1106zM1327 0v33h147l68 73v574l-68 74h-147v32h1067v-325h-33l-164 293h-330l-98 -80v-248h182l107 182h33v-403h-33l-107 188h-182v-287l80 -73h141v-33h-663zM76 0v33 h147l68 73v574l-68 74h-147v32h1067v-325h-33l-164 293h-330l-98 -80v-248h182l107 182h33v-403h-33l-107 188h-182v-287l80 -73h141v-33h-663z" />
</font>
</defs>
</svg>
